<?xml version="1.0" standalone="no"?>
<!DOCTYPE svg PUBLIC "-//W3C//DTD SVG 1.1//EN" "http://www.w3.org/Graphics/SVG/1.1/DTD/svg11.dtd" >
<svg xmlns="http://www.w3.org/2000/svg">
<metadata>
This is a custom SVG webfont generated by Font Squirrel.
Copyright   : Copyright 2011 Dalton Maag Ltd Modification of this file requires prior written permission from Dalton Maag Ltd
Designer    : Dalton Maag Ltd
Foundry     : Dalton Maag Ltd
Foundry URL : httpwwwdaltonmaagcom
</metadata>
<defs>
<font id="TerumoBCTItalic" horiz-adv-x="1161" >
<font-face units-per-em="2048" ascent="1638" descent="-410" />
<missing-glyph horiz-adv-x="430" />
<glyph unicode=" "  horiz-adv-x="430" />
<glyph unicode="&#x09;" horiz-adv-x="430" />
<glyph unicode="&#xa0;" horiz-adv-x="430" />
<glyph unicode="!" horiz-adv-x="425" d="M119 76q0 70 45 108.5t94 38.5q37 0 67.5 -24.5t30.5 -77.5q0 -35 -12 -61.5t-32.5 -45t-46 -29t-50.5 -10.5q-37 0 -68 25q-28 23 -28 76zM233 457l201 909h166l-203 -909h-164z" />
<glyph unicode="&#x22;" horiz-adv-x="686" d="M274 760l138 606h153l-135 -606h-156zM592 760l135 606h154l-136 -606h-153z" />
<glyph unicode="#" horiz-adv-x="1273" d="M111 496l28 139h363l55 248h-360l28 137h363l76 346h147l-78 -346h258l78 346h145l-77 -346h362l-31 -137h-360l-57 -248h362l-31 -139h-360l-78 -344h-145l75 344h-258l-75 -344h-148l78 344h-360zM647 635h258l56 248h-259z" />
<glyph unicode="$" d="M129 205l133 78q31 -59 101.5 -109.5t162.5 -56.5l125 545h-2q-57 27 -109.5 59.5t-90 73.5t-61 93t-23.5 120q0 117 48 189.5t117.5 115.5t147.5 60.5t137 21.5l57 266h142l-62 -275q106 -16 196.5 -70t133.5 -151l-137 -67q-78 133 -225 151l-107 -485 q55 -29 109.5 -60.5t96.5 -74.5t67.5 -97.5t25.5 -123.5q0 -109 -40 -189t-106.5 -133t-152.5 -81t-176 -34l-66 -272h-137l66 278q-125 16 -224.5 74t-146.5 154zM535 1030q0 -66 41.5 -115t111.5 -90l94 428q-104 -6 -175.5 -62.5t-71.5 -160.5zM666 113q55 6 103 24.5 t86 52t59.5 83t21.5 114.5q0 72 -49 123t-111 88z" />
<glyph unicode="%" horiz-adv-x="1591" d="M76 88l1648 1286l84 -98l-1650 -1286zM301 1022q0 63 24.5 126.5t72.5 115t121 83t167 31.5q74 0 127 -21.5t89 -58t53.5 -85t17.5 -99.5q0 -63 -25.5 -127.5t-74 -117t-120 -85t-165.5 -32.5q-72 0 -125 22q-55 23 -90 60.5t-53.5 86t-18.5 101.5zM442 1034 q0 -59 37 -106q39 -45 121 -45q53 0 95 20.5t71 52t44 70.5t15 78q0 59 -36.5 105t-116.5 46q-57 0 -99.5 -20.5t-71 -52t-44 -70.5t-15.5 -78zM938 256q0 63 24.5 126.5t72.5 115t121 83t167 31.5q70 0 124 -21.5t90 -58t53.5 -84t17.5 -98.5q0 -66 -24.5 -130t-73 -116.5 t-120 -85t-165.5 -32.5q-72 0 -129 22q-53 23 -88 59.5t-52.5 86t-17.5 102.5zM1079 268q0 -59 39 -106t117 -47q53 0 96 20.5t72 53t44 72.5t15 79q0 57 -38 102t-117 45q-55 0 -97.5 -20.5t-71 -52t-44 -70.5t-15.5 -76z" />
<glyph unicode="&#x26;" horiz-adv-x="1320" d="M164 301q0 88 40 169t104.5 149.5t143 124t158.5 94.5q-2 6 -6 14t-8 14q-25 47 -44.5 97.5t-19.5 103.5q0 76 30 133t78 96t112.5 59.5t136.5 20.5q139 0 212 -61.5t73 -165.5q0 -94 -87.5 -195.5t-248.5 -171.5l157 -280q45 57 90 116.5t92.5 112.5t95.5 98t97 76 l60 -125q-37 -29 -75 -67.5t-76 -83.5t-74 -90t-62 -84l-70 -88q47 -84 102.5 -182.5t98.5 -184.5h-187l-129 233q-45 -51 -93 -97t-103 -82t-119.5 -56.5t-140.5 -20.5q-82 0 -145.5 26t-106.5 71t-64.5 103t-21.5 124zM334 307q0 -78 48 -132t138 -54q51 0 97.5 20.5 t90.5 53t86 74.5t83 87l-199 361q-59 -29 -119.5 -72t-111 -95t-82 -113.5t-31.5 -129.5zM705 1100q0 -29 12 -65t24 -64l33 -70q41 16 82 40t75 54.5t55.5 68.5t21.5 81q0 53 -38 79.5t-89 26.5q-33 0 -65 -11t-56.5 -31.5t-39.5 -48t-15 -60.5z" />
<glyph unicode="'" horiz-adv-x="364" d="M274 760l138 606h149l-135 -606h-152z" />
<glyph unicode="(" horiz-adv-x="567" d="M221 479q0 59 7.5 124t23.5 136q33 139 91 257t137 213.5t174.5 167t203.5 118.5l43 -100q-80 -49 -154.5 -111.5t-137 -142.5t-113 -179.5t-76.5 -222.5q-18 -80 -25.5 -150.5t-7.5 -131.5q0 -168 50 -281t130 -186l-65 -88q-127 80 -204 224t-77 353z" />
<glyph unicode=")" horiz-adv-x="567" d="M-29 0q80 49 156 111.5t139.5 142.5t111.5 179t77 222q18 80 25 151t7 134q0 166 -51 278.5t-131 186.5l68 90q125 -82 201.5 -226.5t76.5 -353.5q0 -59 -6 -123.5t-24 -136.5q-31 -139 -90.5 -256.5t-138.5 -213t-175 -167t-203 -116.5z" />
<glyph unicode="*" horiz-adv-x="913" d="M272 922l316 174l-234 180l86 98l219 -168l62 279h131l-61 -273l276 156l51 -98l-313 -176l235 -181l-88 -100l-215 168l-63 -287h-129l63 285l-278 -158z" />
<glyph unicode="+" d="M233 608v144h433v448h151v-448h432v-144h-432v-450h-151v450h-433z" />
<glyph unicode="," horiz-adv-x="438" d="M-4 -135q41 10 95 42t81 68q-16 10 -31.5 32t-15.5 59q0 31 11 60.5t31.5 53t48.5 38.5t56 15q43 0 70 -26.5t27 -73.5q0 -61 -36 -115.5t-90.5 -97.5t-119 -73.5t-123.5 -49.5z" />
<glyph unicode="-" horiz-adv-x="659" d="M199 461l32 145h467l-32 -145h-467z" />
<glyph unicode="." horiz-adv-x="425" d="M113 80q0 51 34.5 97t104.5 46q53 0 77.5 -30.5t24.5 -71.5q0 -51 -35.5 -97.5t-105.5 -46.5q-51 0 -75.5 31t-24.5 72z" />
<glyph unicode="/" horiz-adv-x="1032" d="M-4 39l1247 1509l111 -88l-1248 -1509z" />
<glyph unicode="0" d="M197 473q0 92 18 194.5t56 204t96.5 192.5t133 161.5t169 111.5t204.5 41q104 0 179 -41t123.5 -109.5t72 -158.5t23.5 -190q0 -92 -19.5 -195.5t-57.5 -204t-96.5 -192.5t-133 -162t-169 -112t-204.5 -42q-104 0 -178 41q-76 41 -124 109.5t-70.5 160t-22.5 191.5z M375 455q0 -70 12 -131.5t41 -108.5q29 -45 74 -71.5t106 -26.5q82 0 148.5 40t121 104.5t95.5 147.5t67.5 170t40 169.5t13.5 148.5q0 70 -12.5 131.5t-42 106.5t-74.5 70.5t-107 25.5q-82 0 -149.5 -39t-122 -103.5t-93 -147.5t-66.5 -169t-40 -168.5t-12 -148.5z" />
<glyph unicode="1" d="M414 1081l487 271h150l-301 -1352h-175l256 1145l-352 -193z" />
<glyph unicode="2" d="M158 0l18 96q57 49 126 108.5t138.5 122t137 124t124.5 116.5q49 45 106.5 101.5t107 119t83 128t33.5 131.5q0 94 -56 140t-145 46q-106 0 -187 -45t-165 -148l-125 86q104 133 223 192.5t277 59.5q164 0 265.5 -77.5t101.5 -217.5q0 -78 -26 -151.5t-70 -142t-102 -133 t-120 -124.5q-109 -104 -218.5 -200t-217.5 -193h586l-33 -139h-862z" />
<glyph unicode="3" d="M129 217l145 74q41 -82 127 -128t172 -46q72 0 134.5 18.5t108.5 53t72.5 85t26.5 113.5q0 51 -20.5 96t-54 79t-80.5 54.5t-103 24.5l29 123q59 2 121.5 23.5t114 59.5t82 89t30.5 117q0 90 -64.5 133t-154.5 43q-84 0 -171 -46t-142 -124l-129 92q86 117 210 172 t261 55q96 0 165.5 -25.5t115.5 -68.5t69 -98.5t23 -114.5q0 -55 -19.5 -111.5t-56.5 -107.5t-91.5 -93t-121.5 -67q72 -29 123 -104.5t51 -192.5q0 -102 -43 -180t-117 -132t-169 -82t-200 -28q-61 0 -128.5 14.5t-129 45t-110.5 77t-76 107.5z" />
<glyph unicode="4" d="M174 420l43 166l856 764h125l-176 -793h156l-29 -137h-156l-96 -420h-162l92 420h-653zM389 557h471l115 516z" />
<glyph unicode="5" d="M180 178l142 82q47 -68 114.5 -104.5t163.5 -36.5q74 0 139.5 22.5t113.5 64.5t75.5 102.5t27.5 137.5q0 70 -30.5 125.5t-87 94.5t-133 59t-170.5 20h-160l133 605h764l-31 -140h-602l-76 -329h27q104 0 202.5 -27t174 -79t121 -129t45.5 -179q0 -121 -42 -212 t-114 -154.5t-167 -95.5t-204 -32q-162 0 -263.5 53.5t-162.5 151.5z" />
<glyph unicode="6" d="M246 389q0 94 25.5 197.5t75.5 206t128 196.5t180.5 172t230.5 134.5t281 78.5l27 -127q-213 -39 -380 -151.5t-273 -290.5q59 39 128.5 57.5t139.5 18.5q86 0 150.5 -31t106.5 -83t63.5 -120.5t21.5 -142.5q0 -94 -30.5 -188.5t-94 -170t-160 -124t-229.5 -48.5 q-92 0 -166 32t-123 88.5t-75.5 132t-26.5 163.5zM420 360q0 -49 12 -94t42 -79.5t74 -55t105 -20.5q82 0 144.5 34.5t104.5 90t62.5 123t20.5 135.5q0 49 -14.5 94t-42 78.5t-70.5 54t-100 20.5q-82 0 -152 -24q-70 -23 -127 -60q-23 -55 -41 -127t-18 -170z" />
<glyph unicode="7" d="M299 0l797 1210h-781l31 140h983l-24 -111l-818 -1239h-188z" />
<glyph unicode="8" d="M199 301q0 141 77 244q82 104 238 164q-76 45 -110.5 113.5t-34.5 146.5q0 94 41 169.5t111.5 128t158.5 81t180 28.5q74 0 142.5 -18.5t121 -56t84 -93t31.5 -129.5q0 -129 -73.5 -220t-211.5 -152q88 -41 126 -115t38 -156q0 -104 -43 -189t-115.5 -146.5t-169 -95.5 t-198.5 -34q-78 0 -148.5 20.5t-126 62.5t-87 103.5t-31.5 143.5zM371 315q0 -49 18 -88q18 -37 51 -63.5t76 -39.5t90 -13q72 0 134.5 23.5t108.5 65.5t71.5 99t25.5 125q0 51 -18.5 90t-50 66.5t-73.5 42t-89 14.5q-74 0 -136.5 -25.5t-108.5 -70.5t-72.5 -104t-26.5 -122 zM532 963q0 -45 19 -82q18 -35 49 -59.5t69 -38t79 -13.5q68 0 126 23.5t101 63.5t67.5 93.5t24.5 114.5q0 88 -64.5 135t-150.5 47q-70 0 -128 -21.5t-101 -59.5t-67 -90t-24 -113z" />
<glyph unicode="9" d="M260 102q98 20 197.5 59.5t186.5 95.5t160 128t124 156q-63 -35 -132 -54.5t-147 -19.5q-82 0 -144.5 30.5t-103.5 81t-61.5 118t-20.5 141.5q0 94 33 190t98.5 174t165 127t234.5 49q98 0 170 -30.5t120 -83t70.5 -122t22.5 -147.5q0 -193 -76 -363.5t-205 -306 t-301 -226.5t-364 -122zM485 840q0 -47 13.5 -90t41 -76t71.5 -51.5t106 -18.5q72 0 141 23q70 25 131 63q37 84 53.5 158t16.5 145q0 49 -12.5 94.5t-40 81t-70.5 56t-107 20.5q-80 0 -143 -38t-108.5 -96t-69 -130.5t-23.5 -140.5z" />
<glyph unicode=":" horiz-adv-x="425" d="M111 80q0 51 34.5 97t104.5 46q53 0 77.5 -30.5t24.5 -71.5q0 -51 -36.5 -97.5t-104.5 -46.5q-51 0 -75.5 31t-24.5 72zM279 834q0 51 35.5 97t105.5 46q53 0 76.5 -31t23.5 -72q0 -51 -35.5 -97t-103.5 -46q-51 0 -76.5 31t-25.5 72z" />
<glyph unicode=";" horiz-adv-x="438" d="M-4 -135q41 10 95 42t81 68q-16 10 -31.5 32t-15.5 59q0 31 11 60.5t31.5 53t48.5 38.5t56 15q43 0 70 -26.5t27 -73.5q0 -61 -36 -115.5t-90.5 -97.5t-119 -73.5t-123.5 -49.5zM287 834q0 51 34.5 97t104.5 46q53 0 76.5 -31t23.5 -72q0 -51 -34.5 -97t-104.5 -46 q-51 0 -75.5 31t-24.5 72z" />
<glyph unicode="&#x3c;" d="M244 623v118l882 324l56 -141l-666 -238l694 -256l-59 -147z" />
<glyph unicode="=" d="M219 303v143h1016v-143h-1016zM219 764v141h1016v-141h-1016z" />
<glyph unicode="&#x3e;" d="M223 430l695 256l-666 238l55 141l885 -324v-118l-907 -340z" />
<glyph unicode="?" horiz-adv-x="794" d="M225 1155q39 43 84 83t100.5 70.5t122 50t146.5 19.5q154 0 249 -70.5t95 -195.5q0 -63 -18.5 -118.5t-49 -103.5t-71.5 -91t-90 -82q-59 -51 -101.5 -87t-70 -65.5t-43 -55.5t-21.5 -56l-16 -74h-160l20 86q25 98 80.5 166.5t130.5 128.5q41 35 84 68.5t78 72.5t56.5 84 t21.5 100q0 78 -53.5 120t-136.5 42q-96 0 -176 -52t-150 -130zM279 78q0 70 46 108.5t95 38.5q37 0 66.5 -24.5t29.5 -77.5q0 -70 -45 -108t-94 -38q-37 0 -68 23q-30 25 -30 78z" />
<glyph unicode="@" horiz-adv-x="1984" d="M227 391q0 211 83 388t223.5 306t322.5 202t381 73q172 0 314.5 -55.5t242.5 -150.5t155.5 -222t55.5 -273q0 -119 -37 -229.5t-100.5 -195t-149.5 -136t-186 -51.5q-80 0 -147.5 33t-98.5 94q-47 -49 -116.5 -85t-165.5 -36q-80 0 -139.5 29t-99.5 78t-59.5 115.5 t-19.5 142.5q0 96 33 190t97.5 168t161.5 120t228 46q98 0 179 -24.5t165 -65.5l-123 -539q-12 -55 17 -98t100 -43q63 0 118.5 37t96.5 102.5t65.5 152.5t24.5 189q0 127 -40 234.5t-118.5 185.5t-193.5 122t-264 44q-182 0 -338 -64.5t-269.5 -178t-178 -267.5t-64.5 -332 q0 -158 50 -274.5t137 -193t204 -113.5t248 -37q135 0 238.5 32.5t175.5 67.5l53 -100q-78 -41 -194.5 -80t-284.5 -39q-162 0 -304.5 46t-249 138.5t-168 229.5t-61.5 317zM838 428q0 -106 51 -178t151 -72q59 0 119 27.5t107 75.5q2 10 3 18t5 18l104 461q-23 10 -72 25.5 t-112 15.5q-84 0 -149.5 -33.5t-111.5 -89t-70.5 -125t-24.5 -143.5z" />
<glyph unicode="A" horiz-adv-x="1220" d="M6 0l856 1366h109l260 -1366h-180l-74 422h-518l-258 -422h-195zM545 567h407l-92 523z" />
<glyph unicode="B" horiz-adv-x="1155" d="M172 0l305 1366h404q72 0 138 -15.5t118.5 -48t82 -87t29.5 -130.5q0 -156 -96 -250t-256 -118q141 -16 212 -102.5t71 -200.5q0 -74 -31 -147.5t-94.5 -133t-159.5 -96.5t-229 -37h-494zM375 141h297q72 0 132 22.5t103 62.5t67.5 92.5t24.5 113.5q0 59 -24.5 100 t-65.5 66t-92 36t-104 11h-224zM516 786h213q63 0 126 18.5t111 53.5t76.5 85t28.5 116q0 43 -18.5 74.5t-48 52t-68.5 30t-80 9.5h-240z" />
<glyph unicode="C" horiz-adv-x="1222" d="M227 492q0 164 46 325.5t136.5 289.5t221.5 208t303 80q145 0 271 -71t188 -224l-152 -68q-23 51 -52.5 89t-66.5 65q-41 29 -92 42t-112 13q-127 0 -221.5 -71.5t-159 -181t-97 -240t-32.5 -248.5q0 -78 19 -145.5t58 -120t97.5 -82t136.5 -29.5q135 0 226 60.5 t163 146.5l127 -92q-98 -121 -224 -193t-294 -72q-119 0 -210 39t-152.5 107.5t-94.5 164t-33 208.5z" />
<glyph unicode="D" horiz-adv-x="1331" d="M174 0l305 1366h348q123 0 229.5 -31.5t185.5 -98.5t124 -166t45 -234q0 -190 -63.5 -345t-180 -263.5t-277.5 -168t-358 -59.5h-358zM377 141h172q143 0 269 49.5t218 139.5t145.5 214t53.5 275q0 205 -114.5 305.5t-315.5 100.5h-187z" />
<glyph unicode="E" horiz-adv-x="1105" d="M174 0l303 1366h838l-31 -141h-666l-98 -439h475l-32 -141h-478l-110 -504h717l-29 -141h-889z" />
<glyph unicode="F" horiz-adv-x="991" d="M174 0l303 1366h813l-30 -141h-642l-102 -461h473l-33 -141h-475l-137 -623h-170z" />
<glyph unicode="G" horiz-adv-x="1284" d="M242 516q0 111 23.5 226.5t74.5 222.5q47 96 107.5 176t135 136t167 87t200.5 31q141 0 265 -66.5t182 -200.5l-142 -71q-49 96 -129 145q-43 25 -93 34t-99 9q-76 0 -141.5 -27.5t-121 -73.5t-98.5 -106.5t-69 -126.5q-43 -98 -63.5 -192t-20.5 -172q0 -166 51 -271 q39 -78 111.5 -118.5t197.5 -40.5q90 0 151.5 14t110.5 33l76 346h-237l30 143h412l-131 -592q-63 -29 -167.5 -58.5t-264.5 -29.5q-184 0 -294 68t-165 178q-35 66 -47 141.5t-12 155.5z" />
<glyph unicode="H" horiz-adv-x="1409" d="M174 0l303 1366h172l-131 -592h719l131 592h170l-303 -1366h-170l139 629h-719l-139 -629h-172z" />
<glyph unicode="I" horiz-adv-x="520" d="M174 0l303 1366h172l-303 -1366h-172z" />
<glyph unicode="J" horiz-adv-x="514" d="M-119 -137q135 20 215 72.5t103 148.5l286 1282h170l-290 -1294q-35 -160 -155 -242t-294 -102z" />
<glyph unicode="K" horiz-adv-x="1208" d="M168 0l305 1366h172l-129 -571l709 571h241l-671 -537l399 -829h-197l-340 719l-192 -154l-125 -565h-172z" />
<glyph unicode="L" horiz-adv-x="1052" d="M174 0l303 1366h172l-272 -1225h663l-30 -141h-836z" />
<glyph unicode="M" horiz-adv-x="1597" d="M174 0l305 1366h195l200 -1055l646 1055h209l-304 -1366h-168l234 1051l-664 -1074h-34l-222 1072l-229 -1049h-168z" />
<glyph unicode="N" horiz-adv-x="1415" d="M172 0l305 1366h152l520 -1018l225 1018h170l-305 -1366h-102l-553 1083l-242 -1083h-170z" />
<glyph unicode="O" horiz-adv-x="1421" d="M236 487q0 160 52 321t152.5 291t244.5 212t333 82q119 0 209 -41t148.5 -112t88 -165t29.5 -201q0 -106 -22.5 -213.5t-67.5 -208t-112.5 -187.5t-154.5 -152.5t-193.5 -102.5t-229.5 -37q-121 0 -209 39q-88 41 -148.5 111t-90 164t-29.5 200zM418 502 q0 -74 16.5 -143.5t54.5 -122.5q39 -53 99.5 -85t148.5 -32q139 0 247 74.5t182.5 187.5t112.5 244t38 243q0 74 -17.5 142.5t-56.5 121t-101.5 83t-150.5 30.5q-139 0 -246.5 -73.5t-180 -185.5t-109.5 -241.5t-37 -242.5z" />
<glyph unicode="P" horiz-adv-x="1169" d="M174 0l305 1366h434q90 0 166 -21.5t131.5 -64.5t87 -107.5t31.5 -152.5q0 -113 -43 -200t-119.5 -147.5t-181 -92t-227.5 -31.5h-289l-123 -549h-172zM504 692h260q182 0 282.5 87t100.5 241q0 53 -19.5 92t-54.5 63.5t-81 37t-99 12.5h-275z" />
<glyph unicode="Q" horiz-adv-x="1421" d="M231 487q0 160 52.5 321t152 292t244.5 213t334 82q119 0 208 -41t148.5 -112t89 -166t29.5 -202q0 -147 -46 -297.5t-133 -276.5t-215 -213t-292 -107q6 -39 37.5 -64t73.5 -38t87.5 -18t79.5 -7l-49 -138q-80 4 -149.5 17.5t-126 42t-95 78t-53.5 127.5v2 q-94 16 -163.5 61t-117.5 112.5t-72 151.5t-24 180zM414 502q0 -74 16 -143.5t55 -122.5t99.5 -85t148.5 -32q139 0 246.5 74.5t182.5 187.5t112 244t37 243q0 74 -16.5 142.5t-55.5 121t-101.5 84t-150.5 31.5q-139 0 -246.5 -73.5t-180.5 -185t-109.5 -242.5t-36.5 -244z " />
<glyph unicode="R" horiz-adv-x="1185" d="M172 0l305 1366h455q78 0 151.5 -21.5t128 -62.5t88 -102.5t33.5 -143.5q0 -96 -35.5 -170.5t-97 -128t-143.5 -85t-178 -44.5l258 -608h-189l-254 598h-217l-133 -598h-172zM510 739h264q74 0 142.5 18.5t121 55.5t84 91t31.5 126q0 51 -20.5 88t-55.5 60.5t-80 35 t-92 11.5h-289z" />
<glyph unicode="S" horiz-adv-x="1110" d="M106 186l125 111q29 -33 67 -64.5t84 -56t102.5 -40t121.5 -15.5q66 0 123 16.5t101 48t71 78.5t27 111q0 55 -19.5 94t-56.5 69.5t-87 58.5t-114 62q-55 31 -113.5 63t-104.5 69.5t-74.5 88t-28.5 121.5q0 98 42 171t109.5 122t155.5 74t180 25q70 0 137.5 -13.5 t129 -41t112.5 -67.5t88 -93l-133 -99q-51 76 -147 121q-45 23 -93.5 33t-103.5 10q-59 0 -111.5 -14.5t-92.5 -42t-64.5 -68.5t-24.5 -94q0 -47 21.5 -81t58.5 -61.5t84 -52t98 -53.5q57 -33 118.5 -65.5t110 -74.5t80 -100.5t31.5 -140.5q0 -109 -43 -188.5t-114.5 -131.5 t-166 -78t-192.5 -26q-172 0 -293 60.5t-201 154.5z" />
<glyph unicode="T" horiz-adv-x="1099" d="M293 1225l29 141h1060l-30 -141h-445l-272 -1225h-170l272 1225h-444z" />
<glyph unicode="U" horiz-adv-x="1390" d="M256 348q0 29 4 58.5t10 60.5l201 899h170l-192 -868q-6 -31 -11.5 -61.5t-5.5 -59.5q0 -111 67.5 -184.5t223.5 -73.5q170 0 282.5 90t151.5 264l201 893h172l-209 -936q-27 -121 -87 -207t-143 -141t-181.5 -82t-204.5 -27q-100 0 -183.5 27t-143 76t-91 118.5 t-31.5 153.5z" />
<glyph unicode="V" horiz-adv-x="1193" d="M307 1366h172l180 -1075l652 1075h190l-850 -1366h-98z" />
<glyph unicode="W" horiz-adv-x="1615" d="M299 1366h168l45 -1012l547 1012h86l119 -1012l469 1012h180l-658 -1366h-102l-117 1020l-569 -1020h-105z" />
<glyph unicode="X" horiz-adv-x="1110" d="M-2 0l618 717l-268 649h189l206 -518l424 518h207l-561 -659l293 -707h-188l-230 569l-487 -569h-203z" />
<glyph unicode="Y" horiz-adv-x="1167" d="M305 1366h184l259 -553l526 553h199l-666 -709l-148 -657h-172l148 655z" />
<glyph unicode="Z" horiz-adv-x="1150" d="M80 0l35 152l1020 1073h-744l31 141h928l-39 -176l-994 -1049h793l-31 -141h-999z" />
<glyph unicode="[" horiz-adv-x="477" d="M84 -293l401 1800h320l-29 -129h-164l-344 -1540h164l-31 -131h-317z" />
<glyph unicode="\" horiz-adv-x="1017" d="M332 1497l135 49l547 -1521l-137 -50z" />
<glyph unicode="]" horiz-adv-x="477" d="M-55 -293l28 131h162l344 1540h-164l29 129h318l-402 -1800h-315z" />
<glyph unicode="^" horiz-adv-x="1079" d="M270 651l504 719h125l195 -690l-154 -59l-152 526l-370 -549z" />
<glyph unicode="_" horiz-adv-x="1089" d="M-98 -451l30 144h1090l-33 -144h-1087z" />
<glyph unicode="`" horiz-adv-x="950" d="M494 1368l112 113l357 -287l-76 -80z" />
<glyph unicode="a" horiz-adv-x="1009" d="M143 240q0 129 71 205.5t175.5 118.5t228 56.5t230.5 14.5l2 12q4 16 7 41t3 47q0 63 -39 103.5t-125 40.5t-145 -29t-109 -74l-96 90q70 66 160 100.5t201 34.5q82 0 141 -19t98 -54t58.5 -82t19.5 -101q0 -57 -16 -127l-138 -618h-149l10 84q-66 -51 -141.5 -79 t-157.5 -28q-57 0 -110.5 18.5t-93.5 52.5t-62.5 82.5t-22.5 109.5zM303 250q0 -74 52.5 -109t119.5 -35q76 0 147.5 30t129.5 71l67 303q-76 0 -166 -8t-167.5 -35t-130 -78t-52.5 -139z" />
<glyph unicode="b" horiz-adv-x="1126" d="M158 51l293 1315h163l-92 -420q74 31 137.5 42t122.5 11q84 0 151.5 -29.5t118 -84t77 -130t26.5 -169.5q0 -129 -46 -241t-131 -193.5t-205 -128t-265 -46.5q-119 0 -207 23.5t-143 50.5zM342 139q37 -16 83 -26.5t87 -10.5q111 0 200 36t150.5 100.5t95 150.5t33.5 189 q0 141 -74.5 216.5t-191.5 75.5q-51 0 -110.5 -13t-122.5 -48z" />
<glyph unicode="c" horiz-adv-x="1019" d="M186 360q0 117 40 233t114 206t177.5 146t234.5 56q133 0 226 -58t136 -181l-137 -53q-31 82 -86 123.5t-152 41.5q-86 0 -156.5 -46t-122.5 -118.5t-80 -161.5t-28 -177q0 -129 73 -198t181 -69q76 0 154 42t145 135l113 -76q-86 -119 -193.5 -173.5t-240.5 -54.5 q-80 0 -152 25t-126 73t-87 119.5t-33 165.5z" />
<glyph unicode="d" horiz-adv-x="1126" d="M190 389q0 113 38 222.5t112 196.5t183.5 140t252.5 53q98 0 158.5 -14t97.5 -29l92 408h164l-303 -1366h-154l5 80q-68 -55 -137.5 -79t-147.5 -24q-88 0 -155.5 34t-113.5 90.5t-69 131t-23 156.5zM350 393q0 -57 15.5 -109.5t46 -91t78 -62.5t112.5 -24q68 0 136.5 33 t127.5 92l133 588q-23 16 -83 35.5t-150 19.5q-96 0 -174 -40.5t-131 -107.5t-82 -154t-29 -179z" />
<glyph unicode="e" horiz-adv-x="1091" d="M190 375q0 121 39 233.5t113 200.5t180.5 140t243.5 52q188 0 279.5 -101t91.5 -261q0 -35 -3.5 -71t-11.5 -70h-749q-12 -35 -15.5 -67t-3.5 -62q0 -119 72 -192t205 -73q96 0 172 42t133 108l113 -70q-76 -92 -180.5 -149.5t-270.5 -57.5q-195 0 -301.5 108t-106.5 290 zM416 623h551q4 10 5 22t1 25q0 94 -53.5 151.5t-161.5 57.5q-100 0 -193.5 -59.5t-148.5 -196.5z" />
<glyph unicode="f" horiz-adv-x="630" d="M190 0l191 848h-152l29 131h154l14 70q39 188 136 267t245 79q84 0 138 -17.5t93 -38.5l-57 -120q-35 16 -74 29.5t-94 13.5q-35 0 -69.5 -8.5t-64.5 -32t-53.5 -65.5t-35.5 -109l-17 -68h246l-28 -131h-242l-191 -848h-168z" />
<glyph unicode="g" horiz-adv-x="1118" d="M55 -154q0 41 11.5 81t37.5 77q55 70 156 113q-35 23 -48 48t-13 58q0 53 41 92q57 51 149 78q-59 41 -96 99.5t-37 140.5q0 90 43 159.5t112.5 115.5t154.5 69.5t169 23.5q82 0 148.5 -13t120.5 -42l188 146l92 -99l-170 -139q53 -70 53 -164q0 -90 -44 -158.5 t-112.5 -114.5t-155.5 -69.5t-171 -23.5q-51 0 -93 4t-79 12q-43 -2 -84 -23.5t-41 -54.5q0 -23 25.5 -34t70.5 -16t104.5 -7t127.5 -8q70 -6 136.5 -18.5t118.5 -40t83.5 -73t31.5 -112.5q0 -109 -55 -180.5t-141 -112.5t-188.5 -57.5t-192.5 -16.5q-223 0 -338 70.5 t-115 189.5zM211 -123q0 -57 34 -91t84 -52.5t104 -24.5t97 -6q66 0 135.5 12.5t127 40t93.5 68.5t36 100q0 37 -17.5 61.5t-50.5 39t-76 21.5t-92 11q-111 10 -184 15q-76 4 -115 6q-76 -29 -126 -79t-50 -122zM422 639q0 -102 73.5 -151.5t184.5 -49.5q61 0 119.5 16.5 t103.5 47t71.5 76t26.5 104.5q0 100 -76.5 150.5t-187.5 50.5q-61 0 -118.5 -16.5t-101.5 -47.5t-69.5 -76t-25.5 -104z" />
<glyph unicode="h" horiz-adv-x="1159" d="M145 0l310 1366h161l-100 -459q68 43 156 68.5t184 25.5q145 0 225 -72.5t80 -205.5q0 -29 -2 -61.5t-10 -67.5l-133 -594h-168l139 610q4 25 7 46.5t3 41.5q0 88 -52 132t-150 44q-39 0 -84 -10t-86 -25.5t-78 -35t-66 -39.5l-168 -764h-168z" />
<glyph unicode="i" horiz-adv-x="464" d="M147 0l218 977h167l-217 -977h-168zM395 1221q0 27 12.5 53t32 46.5t44 33t48.5 12.5q41 0 65 -25.5t24 -64.5q0 -27 -11.5 -52.5t-31 -46t-44 -32.5t-51.5 -12q-41 0 -64.5 24.5t-23.5 63.5z" />
<glyph unicode="j" horiz-adv-x="460" d="M-78 -293q45 27 80 54.5t59.5 60.5t43 75t30.5 99l221 981h164l-219 -981q-37 -158 -108.5 -251t-188.5 -146zM385 1227q0 27 10.5 52.5t29.5 44.5t44 30.5t53 11.5q41 0 64.5 -27.5t23.5 -68.5q0 -53 -41 -95t-98 -42q-39 0 -62.5 27.5t-23.5 66.5z" />
<glyph unicode="k" horiz-adv-x="1026" d="M143 0l308 1366h163l-168 -752l484 363h225l-422 -315l293 -662h-180l-248 557l-197 -143l-92 -414h-166z" />
<glyph unicode="l" horiz-adv-x="462" d="M147 0l304 1366h165l-303 -1366h-166z" />
<glyph unicode="m" horiz-adv-x="1779" d="M145 0l220 977h151l-6 -78q59 35 149.5 68.5t186.5 33.5q74 0 147.5 -25.5t110.5 -96.5q74 51 175 86.5t212 35.5q147 0 220 -69.5t73 -200.5q0 -70 -15 -141l-133 -590h-168l138 610q4 23 8 43.5t4 38.5q0 84 -48 131t-138 47q-41 0 -85 -12t-86 -29.5t-78 -38 t-61 -36.5q2 -8 2 -17v-16q0 -35 -6 -66.5t-14 -64.5l-131 -590h-166l137 610q4 25 6 47.5t2 44.5q0 72 -37.5 120t-128.5 48q-39 0 -79.5 -11t-80.5 -27.5t-78 -37t-67 -40.5l-168 -754h-168z" />
<glyph unicode="n" horiz-adv-x="1163" d="M145 0l220 977h151l-6 -78q76 45 166 73.5t182 28.5q141 0 227 -69.5t86 -204.5q0 -29 -4 -57.5t-10 -61.5l-137 -608h-166l137 612q8 39 8 78q0 82 -45 133t-151 51q-41 0 -85 -11t-86 -27.5t-81 -37t-70 -40.5l-168 -758h-168z" />
<glyph unicode="o" horiz-adv-x="1153" d="M188 387q0 123 44 234.5t123 195.5t189.5 134t243.5 50q98 0 170 -31.5t120 -86t73 -128t25 -157.5q0 -123 -44.5 -234.5t-123 -197.5t-190 -137.5t-245.5 -51.5q-94 0 -167 33q-70 33 -118 88.5t-74 130t-26 158.5zM350 387q0 -53 14.5 -104.5t43.5 -92.5 q31 -39 76.5 -62.5t111.5 -23.5q96 0 174 46.5t132 118t84 158.5t30 169q0 55 -14.5 106.5t-44 90t-78 62.5t-111.5 24q-96 0 -173 -46.5t-132 -118t-84 -158.5t-29 -169z" />
<glyph unicode="p" horiz-adv-x="1126" d="M57 -387l305 1364h152l-2 -72q76 51 150.5 73.5t146.5 22.5t136.5 -25.5t112.5 -77.5t74.5 -129t26.5 -177q0 -109 -39 -218.5t-115.5 -197.5t-195.5 -144.5t-279 -56.5q-76 0 -128 11.5t-89 23.5l-90 -397h-166zM344 147q25 -16 79 -30.5t109 -14.5q113 0 200 45.5 t146.5 117t89 157.5t29.5 170q0 150 -69.5 216t-167.5 66q-68 0 -139.5 -26.5t-139.5 -77.5z" />
<glyph unicode="q" horiz-adv-x="1132" d="M190 395q0 115 38 224.5t118 194.5t205 136t299 51q41 0 88 -2t93 -5t90 -7t79 -10l-305 -1364h-166l92 418q-123 -55 -233 -56q-96 0 -170 33t-124 89.5t-77 133t-27 164.5zM352 416q0 -139 70 -224.5t207 -85.5q59 0 114.5 17.5t108.5 46.5l154 690q-27 6 -73 10 t-102 4q-119 0 -209 -39.5t-149 -104t-90 -146.5t-31 -168z" />
<glyph unicode="r" horiz-adv-x="692" d="M145 0l220 975h149l-4 -82q49 41 120.5 74.5t139.5 33.5q47 0 86 -5t57 -11l-61 -145q-25 8 -56.5 14t-74.5 6q-31 0 -67 -12t-68.5 -29.5t-60 -38t-48.5 -37.5l-164 -743h-168z" />
<glyph unicode="s" horiz-adv-x="886" d="M117 162l125 78q29 -59 95 -98.5t146 -39.5q96 0 166 39t70 125q0 68 -57.5 113t-147.5 86q-119 53 -180.5 116.5t-61.5 141.5q0 72 32 124t83 87t118.5 51t139.5 16q102 0 193.5 -37.5t140.5 -115.5l-119 -82q-35 49 -94 83t-139 34t-135.5 -34t-55.5 -99 q0 -49 55.5 -87t153.5 -85q111 -49 173.5 -119t62.5 -164q0 -78 -33 -137.5t-90.5 -99.5t-131 -60.5t-153.5 -20.5q-131 0 -225 52.5t-131 132.5z" />
<glyph unicode="t" horiz-adv-x="704" d="M227 848l29 129h176l60 266h165l-59 -266h268l-30 -129h-269l-135 -600q-4 -16 -5 -29.5t-1 -32.5q0 -39 23.5 -59.5t56.5 -20.5q39 0 73.5 14.5t71.5 37.5l58 -101q-53 -35 -115 -57.5t-135 -22.5q-90 0 -145.5 48.5t-55.5 136.5q0 20 1 41.5t11 62.5l133 582h-176z" />
<glyph unicode="u" horiz-adv-x="1157" d="M213 252q0 31 3 64.5t13 80.5l133 580h162l-133 -606q-6 -27 -10 -49.5t-4 -59.5q0 -70 49 -112q53 -45 139 -46q96 0 182.5 35t145.5 82l168 756h164l-217 -977h-150l4 76q-72 -45 -150.5 -72t-189.5 -27q-154 0 -231.5 76t-77.5 199z" />
<glyph unicode="v" horiz-adv-x="958" d="M219 977h168l131 -797l488 797h172l-605 -977h-186z" />
<glyph unicode="w" horiz-adv-x="1421" d="M217 977h176l72 -733l414 733h96l90 -733l395 733h176l-551 -977h-131l-84 702l-397 -702h-129z" />
<glyph unicode="x" horiz-adv-x="866" d="M2 0l453 500l-222 477h170l164 -354l312 354h182l-430 -483l233 -494h-172l-170 371l-334 -371h-186z" />
<glyph unicode="y" horiz-adv-x="974" d="M-78 -375l55 121q33 -14 63 -21.5t58 -7.5q57 0 99.5 29t85.5 94l123 185l-191 952h170l141 -762l480 762h188l-799 -1227q-55 -86 -130 -125t-163 -39q-57 0 -106 13.5t-74 25.5z" />
<glyph unicode="z" horiz-adv-x="972" d="M80 0l35 154l753 692h-575l29 131h759l-37 -164l-755 -684h629l-27 -129h-811z" />
<glyph unicode="{" horiz-adv-x="512" d="M182 637l23 108q82 10 139 53.5t82 145.5l68 303q31 139 116.5 194.5t233.5 55.5l-25 -115q-51 -2 -81.5 -12t-49 -29.5t-30 -50t-19.5 -73.5l-64 -273q-23 -111 -73.5 -170t-153.5 -90q70 -23 98.5 -60.5t28.5 -101.5q0 -23 -2 -45t-8 -49l-64 -266q-4 -25 -9 -46.5 t-5 -45.5q0 -37 21.5 -61.5t95.5 -26.5l-27 -109q-117 2 -180.5 40t-63.5 126q0 33 13 84l67 305q8 31 9 64q0 68 -37 101.5t-103 43.5z" />
<glyph unicode="|" horiz-adv-x="456" d="M117 -152l368 1663h156l-371 -1663h-153z" />
<glyph unicode="}" horiz-adv-x="514" d="M-27 -127l27 115q51 2 81 12t47 29.5t26.5 50.5t19.5 74l62 272q25 111 77 170t156 90q-70 23 -97.5 60.5t-27.5 101.5q0 23 2 45t8 49l64 266q4 25 9 46.5t5 45.5q0 37 -24.5 61.5t-92.5 27.5l25 108q117 -2 180.5 -40t63.5 -126q0 -33 -13 -84l-67 -305 q-10 -31 -10 -63q0 -68 37.5 -102t103.5 -44l-23 -108q-82 -10 -139 -53.5t-82 -145.5l-69 -303q-29 -139 -117.5 -194.5t-231.5 -55.5z" />
<glyph unicode="~" horiz-adv-x="956" d="M225 1034q49 137 141.5 215t227.5 78q70 0 110.5 -18.5t77.5 -46.5q23 -14 38.5 -29.5t33.5 -30.5q16 -14 32.5 -24.5t33.5 -10.5q88 0 129 47.5t65 116.5h139q-20 -80 -61 -137t-90 -95t-102.5 -56.5t-100.5 -18.5q-66 0 -104.5 18.5t-69.5 44.5q-25 20 -43 38t-35 30 q-16 14 -36.5 23.5t-45.5 9.5q-90 0 -135 -44t-70 -110h-135z" />
<glyph unicode="&#xa1;" horiz-adv-x="425" d="M41 -389l203 909h162l-199 -909h-166zM285 856q0 35 12 61.5t32.5 45t46 28.5t50.5 10q37 0 66.5 -23.5t29.5 -76.5q0 -70 -45 -108.5t-94 -38.5q-37 0 -70 24q-28 25 -28 78z" />
<glyph unicode="&#xa2;" d="M340 602q0 96 30.5 178t90 144.5t142.5 103.5t185 53l66 285h119l-64 -283q68 -4 120 -22.5t91 -40.5l-61 -115q-43 25 -87 36t-87 13l-123 -534q90 4 174 41l45 -113q-47 -25 -118.5 -42t-131.5 -19l-65 -295h-119l65 299q-68 8 -119 35.5t-84.5 68.5t-51 94.5 t-17.5 112.5zM502 618q0 -72 35.5 -120.5t105.5 -71.5l117 522q-63 -12 -111.5 -44t-81 -77t-49 -98.5t-16.5 -110.5z" />
<glyph unicode="&#xa3;" d="M246 514l28 139h152l76 340q84 385 461 385q152 0 240.5 -67.5t125.5 -169.5l-149 -70q-27 63 -79 111.5t-151 48.5q-127 0 -194.5 -68.5t-98.5 -199.5l-67 -310h477l-33 -139h-475l-84 -375h635l-31 -139h-800l116 514h-149z" />
<glyph unicode="&#xa4;" horiz-adv-x="1435" d="M35 158l409 327q-23 41 -36 88.5t-13 98.5q0 98 39 188t109 164l-246 311l145 103l244 -305q66 41 142.5 64.5t158.5 23.5q78 0 149.5 -21.5t120.5 -62.5l377 301l99 -103l-383 -303q23 -41 34 -87t11 -97q0 -109 -44 -208t-126 -171l245 -311l-131 -99l-254 306 q-68 -37 -142.5 -53.5t-149.5 -16.5q-158 0 -263 86l-405 -322zM559 690q0 -109 74 -180q72 -70 192 -70q78 0 151 32t131 84t93 122t35 145q0 109 -74 179.5t-194 70.5q-76 0 -150 -31.5t-130 -84t-92 -122t-36 -145.5z" />
<glyph unicode="&#xa5;" d="M283 444l28 140h310l14 55l-45 109h-240l31 141h147l-188 461h186l219 -553l492 553h199l-412 -461h143l-28 -141h-238l-96 -107l-14 -57h303l-33 -140h-299l-100 -444h-173l101 444h-307z" />
<glyph unicode="&#xa6;" horiz-adv-x="413" d="M94 -152l125 564h156l-125 -564h-156zM340 946l125 565h153l-124 -565h-154z" />
<glyph unicode="&#xa7;" horiz-adv-x="905" d="M57 -160l107 86q37 -45 93 -72.5t122 -27.5q100 0 164.5 49t64.5 135q0 55 -46 107.5t-159 134.5q-82 59 -129 121.5t-47 144.5q0 68 28 122t75 96t107.5 71t127.5 41q-59 59 -98 125.5t-39 142.5q0 57 21.5 108.5t63.5 89.5t103.5 59.5t143.5 21.5q127 0 201.5 -39 t111.5 -82l-106 -86q-33 39 -90.5 62.5t-128.5 23.5q-61 0 -111.5 -34t-50.5 -107q0 -37 10 -66t30.5 -56.5t51.5 -58.5l72 -71q49 -47 81.5 -85t55 -72t34 -65.5t11.5 -68.5q0 -63 -25.5 -117.5t-65.5 -97.5t-95.5 -73t-114.5 -44q135 -86 135 -229q0 -68 -29.5 -127.5 t-81 -103.5t-122 -69.5t-156.5 -25.5q-117 0 -196 38t-124 99zM387 545q0 -59 43 -109q45 -49 123 -110q100 25 161.5 85t61.5 146q0 51 -33.5 98t-107.5 119q-49 -6 -93 -24.5t-79 -48t-55.5 -68.5t-20.5 -88z" />
<glyph unicode="&#xa8;" horiz-adv-x="950" d="M467 1294q0 27 11 52.5t30.5 46t43 33t50.5 12.5q39 0 62.5 -26t23.5 -62q0 -27 -12 -52.5t-29.5 -45t-43 -32t-50.5 -12.5q-39 0 -62.5 24.5t-23.5 61.5zM834 1294q0 27 12 52.5t30.5 46t43 33t51.5 12.5q37 0 61.5 -26t24.5 -62q0 -27 -12.5 -52.5t-32 -45t-44 -32 t-48.5 -12.5q-39 0 -62.5 24.5t-23.5 61.5z" />
<glyph unicode="&#xa9;" horiz-adv-x="1669" d="M236 608q0 143 47 279.5t140 244t230.5 173t323.5 65.5q182 0 319.5 -65.5t230.5 -173t139 -243.5t46 -280q0 -145 -46 -282.5t-139 -245t-231.5 -173t-320.5 -65.5q-186 0 -324 66q-137 66 -229 173t-139 244.5t-47 282.5zM371 608q0 -121 37.5 -237.5t113.5 -208.5 q78 -90 190.5 -145.5t264.5 -55.5q147 0 260 55.5t189.5 146.5t114.5 207.5t38 237.5t-38 237t-114.5 207t-189.5 146t-260 55q-152 0 -265.5 -55t-189.5 -146t-113.5 -207t-37.5 -237zM584 604q0 123 30.5 212t84 147.5t127 86t157.5 27.5q121 0 193.5 -52t113.5 -122 l-100 -61q-33 57 -81 91t-130 34q-117 0 -188.5 -91.5t-71.5 -271.5q0 -174 75.5 -263t188.5 -89q70 0 121 35t92 92l98 -66q-49 -78 -130 -125t-183 -47q-84 0 -157.5 27t-126 83t-83 143t-30.5 210z" />
<glyph unicode="&#xaa;" horiz-adv-x="735" d="M285 940q0 94 50 153.5t126 91.5t166 44t166 12q8 33 8 57q0 53 -31 77t-86 24q-43 0 -91 -21.5t-85 -62.5l-92 65q121 127 280 127q111 0 177.5 -44t66.5 -146q0 -18 -3 -39t-7 -43l-107 -471h-125l4 49q-33 -23 -89 -45.5t-115 -22.5q-43 0 -81 13.5t-69 39t-47 61.5 t-16 81zM422 950q0 -47 38 -69.5t77 -22.5q51 0 100 20.5t86 45.5l47 209q-45 0 -104.5 -6.5t-113.5 -27t-92 -56.5t-38 -93z" />
<glyph unicode="&#xab;" horiz-adv-x="1034" d="M156 522l491 410l96 -90l-374 -324l282 -328l-119 -79zM551 504l491 428l97 -90l-375 -342l242 -305l-117 -82z" />
<glyph unicode="&#xac;" d="M219 907v144h1016v-752h-156v608h-860z" />
<glyph unicode="&#xad;" horiz-adv-x="659" d="M199 461l32 145h467l-32 -145h-467z" />
<glyph unicode="&#xae;" horiz-adv-x="1669" d="M236 608q0 143 47 279.5t140 244t230.5 173t323.5 65.5q182 0 319.5 -65.5t230.5 -173t139 -243.5t46 -280q0 -145 -46 -282.5t-139 -245t-231.5 -173t-320.5 -65.5q-186 0 -324 66q-137 66 -229 173t-139 244.5t-47 282.5zM371 608q0 -121 37.5 -237.5t113.5 -208.5 q78 -90 190.5 -145.5t264.5 -55.5q147 0 260 55.5t189.5 146.5t114.5 207.5t38 237.5t-38 237t-114.5 207t-189.5 146t-260 55q-152 0 -265.5 -55t-189.5 -146t-113.5 -207t-37.5 -237zM676 164v903h307q162 0 237.5 -68.5t75.5 -181.5q0 -117 -64.5 -177t-160.5 -79 l256 -397h-149l-250 387h-123v-387h-129zM805 662h172q184 0 184 155q0 141 -176 141h-180v-296z" />
<glyph unicode="&#xaf;" horiz-adv-x="950" d="M438 1243l29 127h633l-29 -127h-633z" />
<glyph unicode="&#xb0;" horiz-adv-x="780" d="M330 1071q0 57 23.5 111.5t65.5 94.5t97 64.5t119 24.5q61 0 117.5 -23.5t97.5 -63.5t64.5 -94.5t23.5 -113.5q0 -61 -23.5 -114.5t-64.5 -93.5t-97.5 -63.5t-117.5 -23.5q-63 0 -119 23q-55 25 -97 64.5t-65.5 93t-23.5 114.5zM459 1071q0 -37 12 -67q14 -31 39 -54.5 t56.5 -37t68.5 -13.5q78 0 127 52.5t49 119.5q0 68 -49 120t-127 52q-76 0 -126 -50t-50 -122z" />
<glyph unicode="&#xb1;" d="M225 0v137h1028v-137h-1028zM236 768v143h434v449h149v-449h432v-143h-432v-451h-149v451h-434z" />
<glyph unicode="&#xb2;" horiz-adv-x="645" d="M244 688l16 82q82 66 149.5 120t118.5 103q63 55 109.5 101.5t46.5 107.5q0 35 -22.5 50.5t-53.5 15.5q-49 0 -90 -24.5t-90 -84.5l-94 64q115 156 287 155q98 0 149 -45t51 -119q0 -80 -48 -139t-109 -112q-57 -51 -105.5 -89t-93.5 -77h283l-23 -109h-481z" />
<glyph unicode="&#xb3;" horiz-adv-x="645" d="M242 821l110 58q25 -53 62 -74t86 -21q57 0 100 31t43 78q0 53 -35 76.5t-100 27.5l20 90q78 4 125 35t47 78q0 37 -27.5 54.5t-66.5 17.5q-90 0 -166 -84l-92 63q59 68 133 97.5t150 29.5q82 0 142.5 -41t60.5 -120q0 -66 -39 -109t-99 -68q41 -16 64.5 -47.5 t23.5 -91.5q0 -41 -18 -78t-47 -65q-43 -39 -99.5 -58.5t-115.5 -19.5q-203 0 -262 141z" />
<glyph unicode="&#xb4;" horiz-adv-x="950" d="M524 1190l361 287l104 -109l-385 -254z" />
<glyph unicode="&#xb5;" horiz-adv-x="1234" d="M84 -385l305 1362h166q-53 -246 -84 -383t-44 -207t-17 -90.5t-4 -28.5q0 -88 54 -126t152 -38q100 0 173 42t114 96q20 29 32.5 66.5t20.5 72.5l133 596h166l-161 -735q-4 -25 -8.5 -43.5t-4.5 -34.5q0 -57 62 -58q33 0 59 9v-115q-27 -10 -60.5 -16.5t-56.5 -6.5 q-74 0 -115.5 26t-52.5 95q-80 -63 -155.5 -92t-186.5 -29q-78 0 -136 24t-89 71l-102 -457h-160z" />
<glyph unicode="&#xb6;" horiz-adv-x="1087" d="M283 883q0 18 2 39.5t6 44.5q18 82 66.5 154.5t119 127t153.5 86t171 31.5h149l-372 -1665h-148l191 864q-74 0 -136.5 23.5t-107.5 66.5t-69.5 101.5t-24.5 126.5zM725 -299l369 1665h155l-370 -1665h-154z" />
<glyph unicode="&#xb7;" horiz-adv-x="618" d="M356 735q0 51 36 97.5t106 46.5q53 0 77.5 -31t24.5 -72q0 -51 -37 -97t-104 -46q-53 0 -78 30.5t-25 71.5z" />
<glyph unicode="&#xb8;" horiz-adv-x="950" d="M-76 -354l170 264h176l-215 -264h-131z" />
<glyph unicode="&#xb9;" horiz-adv-x="645" d="M365 1247l256 123h108l-154 -680h-129l119 537l-153 -74z" />
<glyph unicode="&#xba;" horiz-adv-x="862" d="M317 1055q0 86 32 170t88.5 148.5t137 104.5t181.5 40q72 0 127 -25t91 -67t53 -96t17 -111q0 -86 -31.5 -169t-90 -149.5t-139.5 -107.5t-177 -41q-76 0 -129 24q-53 25 -89 67t-53.5 97.5t-17.5 114.5zM451 1055q0 -80 41 -137q43 -55 126 -56q68 0 121.5 34t91 86 t58 113.5t20.5 118.5q0 80 -41 135.5t-129 55.5q-66 0 -120 -34t-90.5 -85t-57 -112.5t-20.5 -118.5z" />
<glyph unicode="&#xbb;" horiz-adv-x="1034" d="M92 201l379 340l-246 307l119 82l338 -393l-494 -426zM485 201l379 321l-284 328l118 82l379 -414l-491 -407z" />
<glyph unicode="&#xbc;" horiz-adv-x="1591" d="M59 57l1665 1315l84 -98l-1675 -1311zM365 1247l256 123h108l-154 -680h-129l119 537l-153 -74zM977 184l20 95l434 399h109l-90 -406h84l-21 -88h-84l-41 -178h-133l41 178h-319zM1126 272h191l53 226z" />
<glyph unicode="&#xbd;" horiz-adv-x="1591" d="M-8 57l1665 1315l84 -98l-1675 -1311zM295 1247l256 123h108l-154 -680h-129l119 537l-153 -74zM967 4l16 82q82 66 149.5 120t118.5 103q63 55 109.5 101.5t46.5 107.5q0 35 -22.5 50.5t-53.5 15.5q-49 0 -90 -24.5t-90 -84.5l-94 64q115 156 287 155q98 0 149 -45 t51 -119q0 -80 -48 -139t-109 -112q-57 -51 -105.5 -89t-93.5 -77h283l-23 -109h-481z" />
<glyph unicode="&#xbe;" horiz-adv-x="1591" d="M84 57l1665 1315l84 -98l-1675 -1311zM242 821l110 58q25 -53 62 -74t86 -21q57 0 100 31t43 78q0 53 -35 76.5t-100 27.5l20 90q78 4 125 35t47 78q0 37 -27.5 54.5t-66.5 17.5q-90 0 -166 -84l-92 63q59 68 133 97.5t150 29.5q82 0 142.5 -41t60.5 -120q0 -66 -39 -109 t-99 -68q41 -16 64.5 -47.5t23.5 -91.5q0 -41 -18 -78t-47 -65q-43 -39 -99.5 -58.5t-115.5 -19.5q-203 0 -262 141zM989 184l20 95l434 399h109l-90 -406h84l-21 -88h-84l-41 -178h-133l41 178h-319zM1138 272h191l53 226z" />
<glyph unicode="&#xbf;" horiz-adv-x="794" d="M-12 -133q0 63 18.5 118.5t48 103.5t71.5 91t89 82q59 51 101 87t71 65.5t43 55.5t21 56l18 74h160l-23 -86q-23 -98 -79 -166.5t-132 -128.5q-41 -35 -84 -68.5t-76.5 -72.5t-55 -84t-21.5 -100q0 -78 52 -120t136 -42q96 0 176 52t152 130l108 -90q-39 -43 -84 -83 t-99 -70.5t-120.5 -50t-146.5 -19.5q-156 0 -250 70.5t-94 195.5zM492 856q0 70 46 107.5t95 37.5q37 0 65 -22q31 -25 31 -78q0 -70 -45 -108.5t-94 -38.5q-37 0 -68 24q-30 25 -30 78z" />
<glyph unicode="&#xc0;" horiz-adv-x="1220" d="M6 0l856 1366h109l260 -1366h-180l-74 422h-518l-258 -422h-195zM545 567h407l-92 523zM648 1708l112 113l357 -287l-76 -80z" />
<glyph unicode="&#xc1;" horiz-adv-x="1220" d="M6 0l856 1366h109l260 -1366h-180l-74 422h-518l-258 -422h-195zM545 567h407l-92 523zM764 1530l361 287l104 -109l-385 -254z" />
<glyph unicode="&#xc2;" horiz-adv-x="1220" d="M6 0l856 1366h109l260 -1366h-180l-74 422h-518l-258 -422h-195zM545 567h407l-92 523zM608 1520l336 290h100l211 -299l-104 -57l-174 229l-283 -229z" />
<glyph unicode="&#xc3;" horiz-adv-x="1220" d="M6 0l856 1366h109l260 -1366h-180l-74 422h-518l-258 -422h-195zM545 567h407l-92 523zM582 1552q41 90 100.5 146.5t159.5 56.5q47 0 92 -24.5t82 -47.5q16 -10 43 -27.5t57 -17.5q33 0 64 27t76 94l108 -49q-45 -94 -101.5 -147.5t-154.5 -53.5q-41 0 -83 17.5 t-75 40.5q-18 12 -54 35.5t-71 23.5t-63.5 -27.5t-73.5 -93.5z" />
<glyph unicode="&#xc4;" horiz-adv-x="1220" d="M6 0l856 1366h109l260 -1366h-180l-74 422h-518l-258 -422h-195zM545 567h407l-92 523zM674 1632q0 27 11 52.5t30.5 46t43 33t50.5 12.5q39 0 62.5 -26t23.5 -62q0 -27 -12 -52.5t-29.5 -45t-43 -32t-50.5 -12.5q-39 0 -62.5 24.5t-23.5 61.5zM1041 1632q0 27 12 52.5 t30.5 46t43 33t51.5 12.5q37 0 61.5 -26t24.5 -62q0 -27 -12.5 -52.5t-32 -45t-44 -32t-48.5 -12.5q-39 0 -62.5 24.5t-23.5 61.5z" />
<glyph unicode="&#xc5;" horiz-adv-x="1220" d="M-2 0l854 1364q-39 12 -66 43q-43 53 -43 125q0 43 16.5 84t45.5 72.5t71 52t95 20.5q92 0 137 -54t45 -126q0 -41 -15.5 -82t-44 -73.5t-71.5 -53.5q-29 -12 -59 -16l258 -1356h-179l-75 422h-518l-259 -422h-192zM535 567h409l-92 523zM838 1542q0 -41 24 -74 q25 -33 74 -32q57 0 90 44t33 93q0 41 -24.5 73.5t-73.5 32.5q-57 0 -90 -43t-33 -94z" />
<glyph unicode="&#xc6;" horiz-adv-x="1806" d="M-4 0l1112 1366h907l-33 -141h-622l-98 -439h434l-31 -141h-434l-115 -504h676l-31 -141h-848l95 422h-465l-344 -422h-203zM659 567h381l148 650z" />
<glyph unicode="&#xc7;" horiz-adv-x="1222" d="M227 492q0 164 46 325.5t136.5 289.5t221.5 208t303 80q145 0 271 -71t188 -224l-152 -68q-23 51 -52.5 89t-66.5 65q-41 29 -92 42t-112 13q-127 0 -221.5 -71.5t-159 -181t-97 -240t-32.5 -248.5q0 -78 19 -145.5t58 -120t97.5 -82t136.5 -29.5q135 0 226 60.5 t163 146.5l127 -92q-98 -121 -224 -193t-294 -72q-119 0 -210 39t-152.5 107.5t-94.5 164t-33 208.5zM424 -354l170 264h176l-215 -264h-131z" />
<glyph unicode="&#xc8;" horiz-adv-x="1105" d="M174 0l303 1366h838l-31 -141h-666l-98 -439h475l-32 -141h-478l-110 -504h717l-29 -141h-889zM670 1708l112 113l357 -287l-76 -80z" />
<glyph unicode="&#xc9;" horiz-adv-x="1105" d="M174 0l303 1366h838l-31 -141h-666l-98 -439h475l-32 -141h-478l-110 -504h717l-29 -141h-889zM760 1530l361 287l104 -109l-385 -254z" />
<glyph unicode="&#xca;" horiz-adv-x="1105" d="M174 0l303 1366h838l-31 -141h-666l-98 -439h475l-32 -141h-478l-110 -504h717l-29 -141h-889zM604 1520l336 290h100l211 -299l-104 -57l-174 229l-283 -229z" />
<glyph unicode="&#xcb;" horiz-adv-x="1105" d="M174 0l303 1366h838l-31 -141h-666l-98 -439h475l-32 -141h-478l-110 -504h717l-29 -141h-889zM672 1634q0 27 11 52.5t30.5 46t43 33t50.5 12.5q39 0 62.5 -26t23.5 -62q0 -27 -12 -52.5t-29.5 -45t-43 -32t-50.5 -12.5q-39 0 -62.5 24.5t-23.5 61.5zM1039 1634 q0 27 12 52.5t30.5 46t43 33t51.5 12.5q37 0 61.5 -26t24.5 -62q0 -27 -12.5 -52.5t-32 -45t-44 -32t-48.5 -12.5q-39 0 -62.5 24.5t-23.5 61.5z" />
<glyph unicode="&#xcc;" horiz-adv-x="520" d="M174 0l303 1366h172l-303 -1366h-172zM328 1708l112 113l357 -287l-76 -80z" />
<glyph unicode="&#xcd;" horiz-adv-x="520" d="M174 0l303 1366h172l-303 -1366h-172zM407 1530l361 287l104 -109l-385 -254z" />
<glyph unicode="&#xce;" horiz-adv-x="520" d="M174 0l303 1366h172l-303 -1366h-172zM272 1520l336 290h100l211 -299l-104 -57l-174 229l-283 -229z" />
<glyph unicode="&#xcf;" horiz-adv-x="520" d="M174 0l303 1366h172l-303 -1366h-172zM340 1634q0 27 11 52.5t30.5 46t43 33t50.5 12.5q39 0 62.5 -26t23.5 -62q0 -27 -12 -52.5t-29.5 -45t-43 -32t-50.5 -12.5q-39 0 -62.5 24.5t-23.5 61.5zM707 1634q0 27 12 52.5t30.5 46t43 33t51.5 12.5q37 0 61.5 -26t24.5 -62 q0 -27 -12.5 -52.5t-32 -45t-44 -32t-48.5 -12.5q-39 0 -62.5 24.5t-23.5 61.5z" />
<glyph unicode="&#xd0;" horiz-adv-x="1339" d="M139 645l29 129h176l133 592h348q125 0 233.5 -29.5t187.5 -94t124 -165t45 -241.5q0 -188 -66.5 -343t-185.5 -264.5t-281.5 -169t-357.5 -59.5h-352l143 645h-176zM375 141h172q143 0 270 49.5t219 139.5t146.5 214t54.5 275q0 211 -118 308.5t-316 97.5h-187 l-100 -451h346l-28 -129h-349z" />
<glyph unicode="&#xd1;" horiz-adv-x="1415" d="M172 0l305 1366h152l520 -1018l225 1018h170l-305 -1366h-102l-553 1083l-242 -1083h-170zM692 1552q41 90 100.5 146.5t159.5 56.5q47 0 92 -24.5t82 -47.5q16 -10 43 -27.5t57 -17.5q33 0 64 27t76 94l108 -49q-45 -94 -101.5 -147.5t-154.5 -53.5q-41 0 -83 17.5 t-75 40.5q-18 12 -54 35.5t-71 23.5t-63.5 -27.5t-73.5 -93.5z" />
<glyph unicode="&#xd2;" horiz-adv-x="1421" d="M236 487q0 160 52 321t152.5 291t244.5 212t333 82q119 0 209 -41t148.5 -112t88 -165t29.5 -201q0 -106 -22.5 -213.5t-67.5 -208t-112.5 -187.5t-154.5 -152.5t-193.5 -102.5t-229.5 -37q-121 0 -209 39q-88 41 -148.5 111t-90 164t-29.5 200zM418 502 q0 -74 16.5 -143.5t54.5 -122.5q39 -53 99.5 -85t148.5 -32q139 0 247 74.5t182.5 187.5t112.5 244t38 243q0 74 -17.5 142.5t-56.5 121t-101.5 83t-150.5 30.5q-139 0 -246.5 -73.5t-180 -185.5t-109.5 -241.5t-37 -242.5zM805 1708l112 113l357 -287l-76 -80z" />
<glyph unicode="&#xd3;" horiz-adv-x="1421" d="M236 487q0 160 52 321t152.5 291t244.5 212t333 82q119 0 209 -41t148.5 -112t88 -165t29.5 -201q0 -106 -22.5 -213.5t-67.5 -208t-112.5 -187.5t-154.5 -152.5t-193.5 -102.5t-229.5 -37q-121 0 -209 39q-88 41 -148.5 111t-90 164t-29.5 200zM418 502 q0 -74 16.5 -143.5t54.5 -122.5q39 -53 99.5 -85t148.5 -32q139 0 247 74.5t182.5 187.5t112.5 244t38 243q0 74 -17.5 142.5t-56.5 121t-101.5 83t-150.5 30.5q-139 0 -246.5 -73.5t-180 -185.5t-109.5 -241.5t-37 -242.5zM856 1530l361 287l104 -109l-385 -254z" />
<glyph unicode="&#xd4;" horiz-adv-x="1421" d="M236 487q0 160 52 321t152.5 291t244.5 212t333 82q119 0 209 -41t148.5 -112t88 -165t29.5 -201q0 -106 -22.5 -213.5t-67.5 -208t-112.5 -187.5t-154.5 -152.5t-193.5 -102.5t-229.5 -37q-121 0 -209 39q-88 41 -148.5 111t-90 164t-29.5 200zM418 502 q0 -74 16.5 -143.5t54.5 -122.5q39 -53 99.5 -85t148.5 -32q139 0 247 74.5t182.5 187.5t112.5 244t38 243q0 74 -17.5 142.5t-56.5 121t-101.5 83t-150.5 30.5q-139 0 -246.5 -73.5t-180 -185.5t-109.5 -241.5t-37 -242.5zM706 1520l336 290h100l211 -299l-104 -57 l-174 229l-283 -229z" />
<glyph unicode="&#xd5;" horiz-adv-x="1421" d="M236 487q0 160 52 321t152.5 291t244.5 212t333 82q119 0 209 -41t148.5 -112t88 -165t29.5 -201q0 -106 -22.5 -213.5t-67.5 -208t-112.5 -187.5t-154.5 -152.5t-193.5 -102.5t-229.5 -37q-121 0 -209 39q-88 41 -148.5 111t-90 164t-29.5 200zM418 502 q0 -74 16.5 -143.5t54.5 -122.5q39 -53 99.5 -85t148.5 -32q139 0 247 74.5t182.5 187.5t112.5 244t38 243q0 74 -17.5 142.5t-56.5 121t-101.5 83t-150.5 30.5q-139 0 -246.5 -73.5t-180 -185.5t-109.5 -241.5t-37 -242.5zM678 1552q41 90 100.5 146.5t159.5 56.5 q47 0 92 -24.5t82 -47.5q16 -10 43 -27.5t57 -17.5q33 0 64 27t76 94l108 -49q-45 -94 -101.5 -147.5t-154.5 -53.5q-41 0 -83 17.5t-75 40.5q-18 12 -54 35.5t-71 23.5t-63.5 -27.5t-73.5 -93.5z" />
<glyph unicode="&#xd6;" horiz-adv-x="1421" d="M236 487q0 160 52 321t152.5 291t244.5 212t333 82q119 0 209 -41t148.5 -112t88 -165t29.5 -201q0 -106 -22.5 -213.5t-67.5 -208t-112.5 -187.5t-154.5 -152.5t-193.5 -102.5t-229.5 -37q-121 0 -209 39q-88 41 -148.5 111t-90 164t-29.5 200zM418 502 q0 -74 16.5 -143.5t54.5 -122.5q39 -53 99.5 -85t148.5 -32q139 0 247 74.5t182.5 187.5t112.5 244t38 243q0 74 -17.5 142.5t-56.5 121t-101.5 83t-150.5 30.5q-139 0 -246.5 -73.5t-180 -185.5t-109.5 -241.5t-37 -242.5zM782 1634q0 27 11 52.5t30.5 46t43 33t50.5 12.5 q39 0 62.5 -26t23.5 -62q0 -27 -12 -52.5t-29.5 -45t-43 -32t-50.5 -12.5q-39 0 -62.5 24.5t-23.5 61.5zM1149 1634q0 27 12 52.5t30.5 46t43 33t51.5 12.5q37 0 61.5 -26t24.5 -62q0 -27 -12.5 -52.5t-32 -45t-44 -32t-48.5 -12.5q-39 0 -62.5 24.5t-23.5 61.5z" />
<glyph unicode="&#xd7;" d="M348 408l291 276l-291 274l111 111l291 -278l294 278l109 -111l-291 -274l291 -276l-106 -113l-297 283l-293 -283z" />
<glyph unicode="&#xd8;" horiz-adv-x="1421" d="M125 49l168 158q-63 129 -64 282q0 160 53.5 322t153 292t244.5 213t334 83q129 0 219 -44t147 -120l179 168l100 -94l-209 -195q20 -53 30.5 -113.5t10.5 -123.5q0 -160 -52.5 -321t-151.5 -290t-245.5 -211t-334.5 -82q-106 0 -189.5 32t-142.5 91l-156 -145zM412 504 q0 -43 4 -84t16 -80l821 774q-39 63 -103.5 100t-162.5 37q-139 0 -246.5 -74.5t-181.5 -186t-110.5 -242.5t-36.5 -244zM502 215q39 -45 95 -70.5t136 -25.5q92 0 172 34.5t144.5 93t113.5 135.5t83 161t51.5 168t17.5 159q0 29 -3 54.5t-7 52.5z" />
<glyph unicode="&#xd9;" horiz-adv-x="1390" d="M256 348q0 29 4 58.5t10 60.5l201 899h170l-192 -868q-6 -31 -11.5 -61.5t-5.5 -59.5q0 -111 67.5 -184.5t223.5 -73.5q170 0 282.5 90t151.5 264l201 893h172l-209 -936q-27 -121 -87 -207t-143 -141t-181.5 -82t-204.5 -27q-100 0 -183.5 27t-143 76t-91 118.5 t-31.5 153.5zM742 1708l112 113l357 -287l-76 -80z" />
<glyph unicode="&#xda;" horiz-adv-x="1390" d="M256 348q0 29 4 58.5t10 60.5l201 899h170l-192 -868q-6 -31 -11.5 -61.5t-5.5 -59.5q0 -111 67.5 -184.5t223.5 -73.5q170 0 282.5 90t151.5 264l201 893h172l-209 -936q-27 -121 -87 -207t-143 -141t-181.5 -82t-204.5 -27q-100 0 -183.5 27t-143 76t-91 118.5 t-31.5 153.5zM858 1530l361 287l104 -109l-385 -254z" />
<glyph unicode="&#xdb;" horiz-adv-x="1390" d="M256 348q0 29 4 58.5t10 60.5l201 899h170l-192 -868q-6 -31 -11.5 -61.5t-5.5 -59.5q0 -111 67.5 -184.5t223.5 -73.5q170 0 282.5 90t151.5 264l201 893h172l-209 -936q-27 -121 -87 -207t-143 -141t-181.5 -82t-204.5 -27q-100 0 -183.5 27t-143 76t-91 118.5 t-31.5 153.5zM715 1520l336 290h100l211 -299l-104 -57l-174 229l-283 -229z" />
<glyph unicode="&#xdc;" horiz-adv-x="1390" d="M256 348q0 29 4 58.5t10 60.5l201 899h170l-192 -868q-6 -31 -11.5 -61.5t-5.5 -59.5q0 -111 67.5 -184.5t223.5 -73.5q170 0 282.5 90t151.5 264l201 893h172l-209 -936q-27 -121 -87 -207t-143 -141t-181.5 -82t-204.5 -27q-100 0 -183.5 27t-143 76t-91 118.5 t-31.5 153.5zM772 1634q0 27 11 52.5t30.5 46t43 33t50.5 12.5q39 0 62.5 -26t23.5 -62q0 -27 -12 -52.5t-29.5 -45t-43 -32t-50.5 -12.5q-39 0 -62.5 24.5t-23.5 61.5zM1139 1634q0 27 12 52.5t30.5 46t43 33t51.5 12.5q37 0 61.5 -26t24.5 -62q0 -27 -12.5 -52.5t-32 -45 t-44 -32t-48.5 -12.5q-39 0 -62.5 24.5t-23.5 61.5z" />
<glyph unicode="&#xdd;" horiz-adv-x="1167" d="M305 1366h184l259 -553l526 553h199l-666 -709l-148 -657h-172l148 655zM792 1530l361 287l104 -109l-385 -254z" />
<glyph unicode="&#xde;" horiz-adv-x="1148" d="M172 0l303 1368h174l-53 -244h250q90 0 167 -19.5t132 -60t86 -105.5t31 -155q0 -88 -36 -174t-111 -153.5t-189.5 -108.5t-272.5 -41h-239l-70 -307h-172zM446 451h240q96 0 170 25.5t123 69.5t74.5 103.5t25.5 128.5q0 55 -20.5 94t-54 65t-82 37t-99.5 11h-258z" />
<glyph unicode="&#xdf;" horiz-adv-x="1134" d="M190 0l191 848h-150l29 131h152q51 221 164.5 317.5t295.5 96.5q154 0 242 -76t88 -211q0 -20 -2 -42t-6 -44l-33 -152h-168q-92 0 -149.5 -31.5t-57.5 -109.5q0 -39 38 -71.5t134 -80.5q102 -51 151.5 -121.5t49.5 -148.5q0 -74 -28.5 -134t-80 -103t-119 -67 t-145.5 -24q-117 0 -200.5 50.5t-114.5 130.5l131 63q20 -47 70.5 -82t113.5 -35q90 0 150.5 44.5t60.5 127.5q0 53 -39.5 100.5t-142.5 96.5q-82 39 -134 95.5t-52 140.5q0 80 32.5 135t89 89t129 49t154.5 15q4 23 6 46.5t2 46.5q0 92 -47 134t-131 42q-47 0 -91 -13.5 t-82 -44t-65.5 -82t-45.5 -127.5l-222 -999h-168z" />
<glyph unicode="&#xe0;" horiz-adv-x="1009" d="M143 240q0 129 71 205.5t175.5 118.5t228 56.5t230.5 14.5l2 12q4 16 7 41t3 47q0 63 -39 103.5t-125 40.5t-145 -29t-109 -74l-96 90q70 66 160 100.5t201 34.5q82 0 141 -19t98 -54t58.5 -82t19.5 -101q0 -57 -16 -127l-138 -618h-149l10 84q-66 -51 -141.5 -79 t-157.5 -28q-57 0 -110.5 18.5t-93.5 52.5t-62.5 82.5t-22.5 109.5zM303 250q0 -74 52.5 -109t119.5 -35q76 0 147.5 30t129.5 71l67 303q-76 0 -166 -8t-167.5 -35t-130 -78t-52.5 -139zM506 1368l112 113l357 -287l-76 -80z" />
<glyph unicode="&#xe1;" horiz-adv-x="1009" d="M143 240q0 129 71 205.5t175.5 118.5t228 56.5t230.5 14.5l2 12q4 16 7 41t3 47q0 63 -39 103.5t-125 40.5t-145 -29t-109 -74l-96 90q70 66 160 100.5t201 34.5q82 0 141 -19t98 -54t58.5 -82t19.5 -101q0 -57 -16 -127l-138 -618h-149l10 84q-66 -51 -141.5 -79 t-157.5 -28q-57 0 -110.5 18.5t-93.5 52.5t-62.5 82.5t-22.5 109.5zM303 250q0 -74 52.5 -109t119.5 -35q76 0 147.5 30t129.5 71l67 303q-76 0 -166 -8t-167.5 -35t-130 -78t-52.5 -139zM579 1190l361 287l104 -109l-385 -254z" />
<glyph unicode="&#xe2;" horiz-adv-x="1009" d="M143 240q0 129 71 205.5t175.5 118.5t228 56.5t230.5 14.5l2 12q4 16 7 41t3 47q0 63 -39 103.5t-125 40.5t-145 -29t-109 -74l-96 90q70 66 160 100.5t201 34.5q82 0 141 -19t98 -54t58.5 -82t19.5 -101q0 -57 -16 -127l-138 -618h-149l10 84q-66 -51 -141.5 -79 t-157.5 -28q-57 0 -110.5 18.5t-93.5 52.5t-62.5 82.5t-22.5 109.5zM303 250q0 -74 52.5 -109t119.5 -35q76 0 147.5 30t129.5 71l67 303q-76 0 -166 -8t-167.5 -35t-130 -78t-52.5 -139zM442 1180l336 290h100l211 -299l-104 -57l-174 229l-283 -229z" />
<glyph unicode="&#xe3;" horiz-adv-x="1009" d="M143 240q0 129 71 205.5t175.5 118.5t228 56.5t230.5 14.5l2 12q4 16 7 41t3 47q0 63 -39 103.5t-125 40.5t-145 -29t-109 -74l-96 90q70 66 160 100.5t201 34.5q82 0 141 -19t98 -54t58.5 -82t19.5 -101q0 -57 -16 -127l-138 -618h-149l10 84q-66 -51 -141.5 -79 t-157.5 -28q-57 0 -110.5 18.5t-93.5 52.5t-62.5 82.5t-22.5 109.5zM303 250q0 -74 52.5 -109t119.5 -35q76 0 147.5 30t129.5 71l67 303q-76 0 -166 -8t-167.5 -35t-130 -78t-52.5 -139zM414 1212q41 90 100.5 146.5t159.5 56.5q47 0 92 -24.5t82 -47.5q16 -10 43 -27.5 t57 -17.5q33 0 64 27t76 94l108 -49q-45 -94 -101.5 -147.5t-154.5 -53.5q-41 0 -83 17.5t-75 40.5q-18 12 -54 35.5t-71 23.5t-63.5 -27.5t-73.5 -93.5z" />
<glyph unicode="&#xe4;" horiz-adv-x="1009" d="M143 240q0 129 71 205.5t175.5 118.5t228 56.5t230.5 14.5l2 12q4 16 7 41t3 47q0 63 -39 103.5t-125 40.5t-145 -29t-109 -74l-96 90q70 66 160 100.5t201 34.5q82 0 141 -19t98 -54t58.5 -82t19.5 -101q0 -57 -16 -127l-138 -618h-149l10 84q-66 -51 -141.5 -79 t-157.5 -28q-57 0 -110.5 18.5t-93.5 52.5t-62.5 82.5t-22.5 109.5zM303 250q0 -74 52.5 -109t119.5 -35q76 0 147.5 30t129.5 71l67 303q-76 0 -166 -8t-167.5 -35t-130 -78t-52.5 -139zM504 1294q0 27 11 52.5t30.5 46t43 33t50.5 12.5q39 0 62.5 -26t23.5 -62 q0 -27 -12 -52.5t-29.5 -45t-43 -32t-50.5 -12.5q-39 0 -62.5 24.5t-23.5 61.5zM871 1294q0 27 12 52.5t30.5 46t43 33t51.5 12.5q37 0 61.5 -26t24.5 -62q0 -27 -12.5 -52.5t-32 -45t-44 -32t-48.5 -12.5q-39 0 -62.5 24.5t-23.5 61.5z" />
<glyph unicode="&#xe5;" horiz-adv-x="1009" d="M143 240q0 129 71 205.5t175.5 118.5t228 56.5t230.5 14.5l2 12q4 16 7 41t3 47q0 63 -39 103.5t-125 40.5t-145 -29t-109 -74l-96 90q70 66 160 100.5t201 34.5q82 0 141 -19t98 -54t58.5 -82t19.5 -101q0 -57 -16 -127l-138 -618h-149l10 84q-66 -51 -141.5 -79 t-157.5 -28q-57 0 -110.5 18.5t-93.5 52.5t-62.5 82.5t-22.5 109.5zM303 250q0 -74 52.5 -109t119.5 -35q76 0 147.5 30t129.5 71l67 303q-76 0 -166 -8t-167.5 -35t-130 -78t-52.5 -139zM588 1272q0 43 16.5 84t45 72.5t70.5 52t93 20.5q92 0 137 -54t45 -126 q0 -41 -14 -82t-44 -73.5t-73 -52t-96 -19.5q-92 0 -136 53t-44 125zM682 1282q0 -41 25 -74q23 -33 71 -32q59 0 91 44t32 93q0 41 -23.5 73.5t-72.5 32.5q-59 0 -91 -43t-32 -94z" />
<glyph unicode="&#xe6;" horiz-adv-x="1644" d="M135 240q0 129 69.5 205.5t176 118.5t230.5 56.5t233 14.5l2 12q4 16 7 41t3 47q0 63 -43 103.5t-129 40.5t-144.5 -29t-107.5 -74l-94 90q66 66 158 100.5t202 34.5q121 0 192 -41.5t103 -109.5q70 74 153 112.5t185 38.5q98 0 167 -27.5t112 -74.5t63.5 -112.5 t20.5 -141.5t-15 -147h-706q-20 -90 -21 -158q0 -236 228 -236q96 0 167.5 34t139.5 112l104 -74q-78 -98 -179 -148.5t-245 -50.5q-76 0 -133 16.5t-97 42t-65.5 56.5t-37.5 60q-39 -51 -84 -85t-95.5 -53.5t-103.5 -28t-111 -8.5q-131 0 -218 70t-87 193zM295 250 q0 -74 52 -109t122 -35q123 0 203 53.5t104 170.5l39 180q-78 0 -169 -8t-169 -35t-130 -78t-52 -139zM1001 623h525q8 37 8 67q0 96 -60.5 142.5t-144.5 46.5q-109 0 -193 -59.5t-135 -196.5z" />
<glyph unicode="&#xe7;" horiz-adv-x="1019" d="M186 360q0 117 40 233t114 206t177.5 146t234.5 56q133 0 226 -58t136 -181l-137 -53q-31 82 -86 123.5t-152 41.5q-86 0 -156.5 -46t-122.5 -118.5t-80 -161.5t-28 -177q0 -129 73 -198t181 -69q76 0 154 42t145 135l113 -76q-86 -119 -193.5 -173.5t-240.5 -54.5 q-80 0 -152 25t-126 73t-87 119.5t-33 165.5zM297 -354l170 264h176l-215 -264h-131z" />
<glyph unicode="&#xe8;" horiz-adv-x="1091" d="M190 375q0 121 39 233.5t113 200.5t180.5 140t243.5 52q188 0 279.5 -101t91.5 -261q0 -35 -3.5 -71t-11.5 -70h-749q-12 -35 -15.5 -67t-3.5 -62q0 -119 72 -192t205 -73q96 0 172 42t133 108l113 -70q-76 -92 -180.5 -149.5t-270.5 -57.5q-195 0 -301.5 108t-106.5 290 zM416 623h551q4 10 5 22t1 25q0 94 -53.5 151.5t-161.5 57.5q-100 0 -193.5 -59.5t-148.5 -196.5zM551 1368l112 113l357 -287l-76 -80z" />
<glyph unicode="&#xe9;" horiz-adv-x="1091" d="M190 375q0 121 39 233.5t113 200.5t180.5 140t243.5 52q188 0 279.5 -101t91.5 -261q0 -35 -3.5 -71t-11.5 -70h-749q-12 -35 -15.5 -67t-3.5 -62q0 -119 72 -192t205 -73q96 0 172 42t133 108l113 -70q-76 -92 -180.5 -149.5t-270.5 -57.5q-195 0 -301.5 108t-106.5 290 zM416 623h551q4 10 5 22t1 25q0 94 -53.5 151.5t-161.5 57.5q-100 0 -193.5 -59.5t-148.5 -196.5zM626 1190l361 287l104 -109l-385 -254z" />
<glyph unicode="&#xea;" horiz-adv-x="1091" d="M190 375q0 121 39 233.5t113 200.5t180.5 140t243.5 52q188 0 279.5 -101t91.5 -261q0 -35 -3.5 -71t-11.5 -70h-749q-12 -35 -15.5 -67t-3.5 -62q0 -119 72 -192t205 -73q96 0 172 42t133 108l113 -70q-76 -92 -180.5 -149.5t-270.5 -57.5q-195 0 -301.5 108t-106.5 290 zM416 623h551q4 10 5 22t1 25q0 94 -53.5 151.5t-161.5 57.5q-100 0 -193.5 -59.5t-148.5 -196.5zM485 1180l336 290h100l211 -299l-104 -57l-174 229l-283 -229z" />
<glyph unicode="&#xeb;" horiz-adv-x="1091" d="M190 375q0 121 39 233.5t113 200.5t180.5 140t243.5 52q188 0 279.5 -101t91.5 -261q0 -35 -3.5 -71t-11.5 -70h-749q-12 -35 -15.5 -67t-3.5 -62q0 -119 72 -192t205 -73q96 0 172 42t133 108l113 -70q-76 -92 -180.5 -149.5t-270.5 -57.5q-195 0 -301.5 108t-106.5 290 zM416 623h551q4 10 5 22t1 25q0 94 -53.5 151.5t-161.5 57.5q-100 0 -193.5 -59.5t-148.5 -196.5zM557 1294q0 27 11 52.5t30.5 46t43 33t50.5 12.5q39 0 62.5 -26t23.5 -62q0 -27 -12 -52.5t-29.5 -45t-43 -32t-50.5 -12.5q-39 0 -62.5 24.5t-23.5 61.5zM924 1294 q0 27 12 52.5t30.5 46t43 33t51.5 12.5q37 0 61.5 -26t24.5 -62q0 -27 -12.5 -52.5t-32 -45t-44 -32t-48.5 -12.5q-39 0 -62.5 24.5t-23.5 61.5z" />
<glyph unicode="&#xec;" horiz-adv-x="462" d="M147 0l218 977h165l-217 -977h-166zM150 1368l112 113l357 -287l-76 -80z" />
<glyph unicode="&#xed;" horiz-adv-x="462" d="M147 0l218 977h165l-217 -977h-166zM319 1190l361 287l104 -109l-385 -254z" />
<glyph unicode="&#xee;" horiz-adv-x="462" d="M147 0l218 977h165l-217 -977h-166zM153 1180l336 290h100l211 -299l-104 -57l-174 229l-283 -229z" />
<glyph unicode="&#xef;" horiz-adv-x="462" d="M147 0l218 977h165l-217 -977h-166zM227 1294q0 27 11 52.5t30.5 46t43 33t50.5 12.5q39 0 62.5 -26t23.5 -62q0 -27 -12 -52.5t-29.5 -45t-43 -32t-50.5 -12.5q-39 0 -62.5 24.5t-23.5 61.5zM594 1294q0 27 12 52.5t30.5 46t43 33t51.5 12.5q37 0 61.5 -26t24.5 -62 q0 -27 -12.5 -52.5t-32 -45t-44 -32t-48.5 -12.5q-39 0 -62.5 24.5t-23.5 61.5z" />
<glyph unicode="&#xf0;" horiz-adv-x="1155" d="M184 381q0 106 38 217t114 201t187.5 146t258.5 56q86 0 144.5 -16t89.5 -35q-14 53 -40 103.5t-69 93.5l-92 -90l-76 61l88 92q-43 29 -87 48.5t-87 29.5l49 107q63 -12 120 -34t108 -54l98 106l80 -65l-102 -105q100 -92 148 -220t48 -282q0 -129 -34.5 -265 t-108.5 -246.5t-190.5 -181.5t-276.5 -71q-100 0 -175 33t-126 88.5t-79 129t-28 153.5zM356 397q0 -59 14.5 -111.5t44 -93t76 -64.5t109.5 -24q117 0 198 63.5t134 159t76.5 204t23.5 200.5q0 45 -6 74q-47 29 -108.5 51.5t-143.5 22.5q-100 0 -179 -44t-131 -114 t-80 -156t-28 -168z" />
<glyph unicode="&#xf1;" horiz-adv-x="1163" d="M145 0l220 977h151l-6 -78q76 45 166 73.5t182 28.5q141 0 227 -69.5t86 -204.5q0 -29 -4 -57.5t-10 -61.5l-137 -608h-166l137 612q8 39 8 78q0 82 -45 133t-151 51q-41 0 -85 -11t-86 -27.5t-81 -37t-70 -40.5l-168 -758h-168zM498 1212q41 90 100.5 146.5t159.5 56.5 q47 0 92 -24.5t82 -47.5q16 -10 43 -27.5t57 -17.5q33 0 64 27t76 94l108 -49q-45 -94 -101.5 -147.5t-154.5 -53.5q-41 0 -83 17.5t-75 40.5q-18 12 -54 35.5t-71 23.5t-63.5 -27.5t-73.5 -93.5z" />
<glyph unicode="&#xf2;" horiz-adv-x="1153" d="M188 387q0 123 44 234.5t123 195.5t189.5 134t243.5 50q98 0 170 -31.5t120 -86t73 -128t25 -157.5q0 -123 -44.5 -234.5t-123 -197.5t-190 -137.5t-245.5 -51.5q-94 0 -167 33q-70 33 -118 88.5t-74 130t-26 158.5zM350 387q0 -53 14.5 -104.5t43.5 -92.5 q31 -39 76.5 -62.5t111.5 -23.5q96 0 174 46.5t132 118t84 158.5t30 169q0 55 -14.5 106.5t-44 90t-78 62.5t-111.5 24q-96 0 -173 -46.5t-132 -118t-84 -158.5t-29 -169zM547 1368l112 113l357 -287l-76 -80z" />
<glyph unicode="&#xf3;" horiz-adv-x="1153" d="M188 387q0 123 44 234.5t123 195.5t189.5 134t243.5 50q98 0 170 -31.5t120 -86t73 -128t25 -157.5q0 -123 -44.5 -234.5t-123 -197.5t-190 -137.5t-245.5 -51.5q-94 0 -167 33q-70 33 -118 88.5t-74 130t-26 158.5zM350 387q0 -53 14.5 -104.5t43.5 -92.5 q31 -39 76.5 -62.5t111.5 -23.5q96 0 174 46.5t132 118t84 158.5t30 169q0 55 -14.5 106.5t-44 90t-78 62.5t-111.5 24q-96 0 -173 -46.5t-132 -118t-84 -158.5t-29 -169zM641 1190l361 287l104 -109l-385 -254z" />
<glyph unicode="&#xf4;" horiz-adv-x="1153" d="M188 387q0 123 44 234.5t123 195.5t189.5 134t243.5 50q98 0 170 -31.5t120 -86t73 -128t25 -157.5q0 -123 -44.5 -234.5t-123 -197.5t-190 -137.5t-245.5 -51.5q-94 0 -167 33q-70 33 -118 88.5t-74 130t-26 158.5zM350 387q0 -53 14.5 -104.5t43.5 -92.5 q31 -39 76.5 -62.5t111.5 -23.5q96 0 174 46.5t132 118t84 158.5t30 169q0 55 -14.5 106.5t-44 90t-78 62.5t-111.5 24q-96 0 -173 -46.5t-132 -118t-84 -158.5t-29 -169zM487 1180l336 290h100l211 -299l-104 -57l-174 229l-283 -229z" />
<glyph unicode="&#xf5;" horiz-adv-x="1153" d="M188 387q0 123 44 234.5t123 195.5t189.5 134t243.5 50q98 0 170 -31.5t120 -86t73 -128t25 -157.5q0 -123 -44.5 -234.5t-123 -197.5t-190 -137.5t-245.5 -51.5q-94 0 -167 33q-70 33 -118 88.5t-74 130t-26 158.5zM350 387q0 -53 14.5 -104.5t43.5 -92.5 q31 -39 76.5 -62.5t111.5 -23.5q96 0 174 46.5t132 118t84 158.5t30 169q0 55 -14.5 106.5t-44 90t-78 62.5t-111.5 24q-96 0 -173 -46.5t-132 -118t-84 -158.5t-29 -169zM467 1212q41 90 100.5 146.5t159.5 56.5q47 0 92 -24.5t82 -47.5q16 -10 43 -27.5t57 -17.5 q33 0 64 27t76 94l108 -49q-45 -94 -101.5 -147.5t-154.5 -53.5q-41 0 -83 17.5t-75 40.5q-18 12 -54 35.5t-71 23.5t-63.5 -27.5t-73.5 -93.5z" />
<glyph unicode="&#xf6;" horiz-adv-x="1153" d="M188 387q0 123 44 234.5t123 195.5t189.5 134t243.5 50q98 0 170 -31.5t120 -86t73 -128t25 -157.5q0 -123 -44.5 -234.5t-123 -197.5t-190 -137.5t-245.5 -51.5q-94 0 -167 33q-70 33 -118 88.5t-74 130t-26 158.5zM350 387q0 -53 14.5 -104.5t43.5 -92.5 q31 -39 76.5 -62.5t111.5 -23.5q96 0 174 46.5t132 118t84 158.5t30 169q0 55 -14.5 106.5t-44 90t-78 62.5t-111.5 24q-96 0 -173 -46.5t-132 -118t-84 -158.5t-29 -169zM578 1294q0 27 11 52.5t30.5 46t43 33t50.5 12.5q39 0 62.5 -26t23.5 -62q0 -27 -12 -52.5t-29.5 -45 t-43 -32t-50.5 -12.5q-39 0 -62.5 24.5t-23.5 61.5zM945 1294q0 27 12 52.5t30.5 46t43 33t51.5 12.5q37 0 61.5 -26t24.5 -62q0 -27 -12.5 -52.5t-32 -45t-44 -32t-48.5 -12.5q-39 0 -62.5 24.5t-23.5 61.5z" />
<glyph unicode="&#xf7;" d="M240 608v144h1013v-144h-1013zM629 315q0 53 32.5 89t81.5 36t83 -35.5t34 -89.5q0 -51 -33.5 -86.5t-83.5 -35.5q-49 0 -81.5 35.5t-32.5 86.5zM629 1061q0 53 32.5 89t81.5 36t83 -36t34 -89q0 -51 -33.5 -87t-83.5 -36q-49 0 -81.5 36t-32.5 87z" />
<glyph unicode="&#xf8;" horiz-adv-x="1153" d="M125 -70l154 185q-43 53 -64.5 123.5t-21.5 148.5q0 123 43 234.5t122.5 195.5t190 134t244.5 50q57 0 105 -10t91 -33l139 168l103 -65l-150 -176q49 -55 73 -128t24 -159q0 -123 -44 -234.5t-122 -197.5t-188.5 -137.5t-245.5 -51.5q-121 0 -207 54l-146 -172zM354 387 q0 -37 7.5 -74t21.5 -71l512 606q-27 14 -56.5 22.5t-66.5 8.5q-96 0 -173 -46.5t-131 -118t-84 -158.5t-30 -169zM465 143q27 -18 59.5 -28.5t75.5 -10.5q96 0 174 46.5t132.5 118t84 158.5t29.5 169q0 92 -39 166z" />
<glyph unicode="&#xf9;" horiz-adv-x="1157" d="M213 252q0 31 3 64.5t13 80.5l133 580h162l-133 -606q-6 -27 -10 -49.5t-4 -59.5q0 -70 49 -112q53 -45 139 -46q96 0 182.5 35t145.5 82l168 756h164l-217 -977h-150l4 76q-72 -45 -150.5 -72t-189.5 -27q-154 0 -231.5 76t-77.5 199zM545 1368l112 113l357 -287 l-76 -80z" />
<glyph unicode="&#xfa;" horiz-adv-x="1157" d="M213 252q0 31 3 64.5t13 80.5l133 580h162l-133 -606q-6 -27 -10 -49.5t-4 -59.5q0 -70 49 -112q53 -45 139 -46q96 0 182.5 35t145.5 82l168 756h164l-217 -977h-150l4 76q-72 -45 -150.5 -72t-189.5 -27q-154 0 -231.5 76t-77.5 199zM669 1190l361 287l104 -109 l-385 -254z" />
<glyph unicode="&#xfb;" horiz-adv-x="1157" d="M213 252q0 31 3 64.5t13 80.5l133 580h162l-133 -606q-6 -27 -10 -49.5t-4 -59.5q0 -70 49 -112q53 -45 139 -46q96 0 182.5 35t145.5 82l168 756h164l-217 -977h-150l4 76q-72 -45 -150.5 -72t-189.5 -27q-154 0 -231.5 76t-77.5 199zM506 1180l336 290h100l211 -299 l-104 -57l-174 229l-283 -229z" />
<glyph unicode="&#xfc;" horiz-adv-x="1157" d="M213 252q0 31 3 64.5t13 80.5l133 580h162l-133 -606q-6 -27 -10 -49.5t-4 -59.5q0 -70 49 -112q53 -45 139 -46q96 0 182.5 35t145.5 82l168 756h164l-217 -977h-150l4 76q-72 -45 -150.5 -72t-189.5 -27q-154 0 -231.5 76t-77.5 199zM578 1294q0 27 11 52.5t30.5 46 t43 33t50.5 12.5q39 0 62.5 -26t23.5 -62q0 -27 -12 -52.5t-29.5 -45t-43 -32t-50.5 -12.5q-39 0 -62.5 24.5t-23.5 61.5zM945 1294q0 27 12 52.5t30.5 46t43 33t51.5 12.5q37 0 61.5 -26t24.5 -62q0 -27 -12.5 -52.5t-32 -45t-44 -32t-48.5 -12.5q-39 0 -62.5 24.5 t-23.5 61.5z" />
<glyph unicode="&#xfd;" horiz-adv-x="974" d="M-78 -375l55 121q33 -14 63 -21.5t58 -7.5q57 0 99.5 29t85.5 94l123 185l-191 952h170l141 -762l480 762h188l-799 -1227q-55 -86 -130 -125t-163 -39q-57 0 -106 13.5t-74 25.5zM581 1190l361 287l104 -109l-385 -254z" />
<glyph unicode="&#xfe;" horiz-adv-x="1128" d="M59 -387l390 1753h165l-102 -457q76 49 151.5 70.5t147.5 21.5q74 0 136.5 -25.5t110.5 -77.5t74.5 -129t26.5 -177q0 -109 -39 -218.5t-115.5 -197.5t-194.5 -144.5t-278 -56.5q-78 0 -132 11.5t-91 23.5l-88 -397h-162zM342 147q20 -16 78.5 -30.5t114.5 -14.5 q113 0 199.5 45.5t146 117t89 157.5t29.5 170q0 150 -69.5 216t-167.5 66q-68 0 -140.5 -26.5t-142.5 -77.5z" />
<glyph unicode="&#xff;" horiz-adv-x="974" d="M-78 -375l55 121q33 -14 63 -21.5t58 -7.5q57 0 99.5 29t85.5 94l123 185l-191 952h170l141 -762l480 762h188l-799 -1227q-55 -86 -130 -125t-163 -39q-57 0 -106 13.5t-74 25.5zM500 1294q0 27 11 52.5t30.5 46t43 33t50.5 12.5q39 0 62.5 -26t23.5 -62 q0 -27 -12 -52.5t-29.5 -45t-43 -32t-50.5 -12.5q-39 0 -62.5 24.5t-23.5 61.5zM867 1294q0 27 12 52.5t30.5 46t43 33t51.5 12.5q37 0 61.5 -26t24.5 -62q0 -27 -12.5 -52.5t-32 -45t-44 -32t-48.5 -12.5q-39 0 -62.5 24.5t-23.5 61.5z" />
<glyph unicode="&#x110;" horiz-adv-x="1339" d="M139 645l29 129h176l133 592h348q125 0 233.5 -29.5t187.5 -94t124 -165t45 -241.5q0 -188 -66.5 -343t-185.5 -264.5t-281.5 -169t-357.5 -59.5h-352l143 645h-176zM375 141h172q143 0 270 49.5t219 139.5t146.5 214t54.5 275q0 211 -118 308.5t-316 97.5h-187 l-100 -451h346l-28 -129h-349z" />
<glyph unicode="&#x131;" horiz-adv-x="462" d="M147 0l218 977h165l-217 -977h-166z" />
<glyph unicode="&#x152;" horiz-adv-x="1873" d="M240 586q0 172 49 305t133 228t195.5 152.5t236.5 80.5q57 10 108.5 12t100.5 2h1018l-31 -141h-625l-96 -439h434l-32 -141h-435l-108 -504h672l-33 -141h-959q-152 0 -270.5 45t-198.5 123t-119.5 185.5t-39.5 232.5zM420 602q0 -217 127 -339t360 -122h103l241 1084 h-194q-49 0 -94 -2t-86 -11q-102 -20 -187.5 -71t-145 -130t-92 -182.5t-32.5 -226.5z" />
<glyph unicode="&#x153;" horiz-adv-x="1783" d="M188 377q0 117 38 228.5t112 199.5t177 142t241 54q70 0 124 -15t92 -40.5t64.5 -60.5t42.5 -74q33 39 73 73t86 60.5t100.5 41.5t119.5 15q92 0 162 -26.5t116 -73.5t68.5 -112.5t22.5 -145.5q0 -63 -17 -145h-706q-8 -39 -12.5 -75t-4.5 -71q0 -115 59.5 -181.5 t188.5 -66.5q88 0 160 40t127 106l107 -74q-76 -98 -178.5 -148.5t-225.5 -50.5q-150 0 -244 54.5t-127 140.5q-76 -86 -168 -140.5t-223 -54.5q-96 0 -166.5 33t-118 88.5t-69 127t-21.5 151.5zM348 360q0 -53 13.5 -99t37.5 -81q29 -35 71 -55.5t101 -20.5q98 0 173 50.5 t124.5 127t76 168t26.5 171.5q0 53 -12.5 100t-40 82t-70.5 55.5t-105 20.5q-96 0 -169.5 -50.5t-125 -127t-76 -168t-24.5 -173.5zM1133 623h522q4 14 5 27.5t1 27.5q0 96 -57.5 148.5t-145.5 52.5q-49 0 -98 -17.5t-92 -50.5t-77.5 -81t-57.5 -107z" />
<glyph unicode="&#x178;" horiz-adv-x="1167" d="M305 1366h184l259 -553l526 553h199l-666 -709l-148 -657h-172l148 655zM664 1632q0 27 11 52.5t30.5 46t43 33t50.5 12.5q39 0 62.5 -26t23.5 -62q0 -27 -12 -52.5t-29.5 -45t-43 -32t-50.5 -12.5q-39 0 -62.5 24.5t-23.5 61.5zM1031 1632q0 27 12 52.5t30.5 46t43 33 t51.5 12.5q37 0 61.5 -26t24.5 -62q0 -27 -12.5 -52.5t-32 -45t-44 -32t-48.5 -12.5q-39 0 -62.5 24.5t-23.5 61.5z" />
<glyph unicode="&#x2c6;" horiz-adv-x="950" d="M393 1180l336 290h100l211 -299l-104 -57l-174 229l-283 -229z" />
<glyph unicode="&#x2da;" horiz-adv-x="950" d="M551 1272q0 43 16.5 84t45 72.5t70.5 52t93 20.5q92 0 137 -54t45 -126q0 -41 -14 -82t-44 -73.5t-73 -52t-96 -19.5q-92 0 -136 53t-44 125zM645 1282q0 -41 25 -74q23 -33 71 -32q59 0 91 44t32 93q0 41 -23.5 73.5t-72.5 32.5q-59 0 -91 -43t-32 -94z" />
<glyph unicode="&#x2dc;" horiz-adv-x="950" d="M375 1212q41 90 100.5 146.5t159.5 56.5q47 0 92 -24.5t82 -47.5q16 -10 43 -27.5t57 -17.5q33 0 64 27t76 94l108 -49q-45 -94 -101.5 -147.5t-154.5 -53.5q-41 0 -83 17.5t-75 40.5q-18 12 -54 35.5t-71 23.5t-63.5 -27.5t-73.5 -93.5z" />
<glyph unicode="&#x2000;" horiz-adv-x="909" />
<glyph unicode="&#x2001;" horiz-adv-x="1820" />
<glyph unicode="&#x2002;" horiz-adv-x="909" />
<glyph unicode="&#x2003;" horiz-adv-x="1820" />
<glyph unicode="&#x2004;" horiz-adv-x="606" />
<glyph unicode="&#x2005;" horiz-adv-x="454" />
<glyph unicode="&#x2006;" horiz-adv-x="303" />
<glyph unicode="&#x2007;" horiz-adv-x="303" />
<glyph unicode="&#x2008;" horiz-adv-x="227" />
<glyph unicode="&#x2009;" horiz-adv-x="362" />
<glyph unicode="&#x200a;" horiz-adv-x="100" />
<glyph unicode="&#x2010;" horiz-adv-x="659" d="M199 461l32 145h467l-32 -145h-467z" />
<glyph unicode="&#x2011;" horiz-adv-x="659" d="M199 461l32 145h467l-32 -145h-467z" />
<glyph unicode="&#x2012;" horiz-adv-x="659" d="M199 461l32 145h467l-32 -145h-467z" />
<glyph unicode="&#x2013;" horiz-adv-x="1189" d="M102 463l33 147h1190l-33 -147h-1190z" />
<glyph unicode="&#x2014;" horiz-adv-x="2377" d="M102 463l33 147h2378l-31 -147h-2380z" />
<glyph unicode="&#x2018;" horiz-adv-x="413" d="M358 1198q0 35 11.5 67.5t32 58.5t49 41t63.5 15q45 0 67.5 -26.5t22.5 -69.5q0 -31 -10 -57.5t-26.5 -48t-34 -37t-31.5 -21.5q10 -35 50 -64.5t77 -43.5l-41 -66q-43 16 -84 41t-74 56.5t-52.5 70.5t-19.5 84z" />
<glyph unicode="&#x2019;" horiz-adv-x="413" d="M231 1012q41 10 96.5 41.5t80.5 68.5q-16 10 -32 32t-16 58q0 31 12.5 61t33 53.5t47 38.5t57.5 15q43 0 68.5 -26.5t25.5 -73.5q0 -61 -36 -115.5t-89 -97.5t-117.5 -73.5t-125.5 -49.5z" />
<glyph unicode="&#x201a;" horiz-adv-x="413" d="M-10 -76q41 10 95 42t81 69q-18 10 -32.5 31.5t-14.5 58.5q0 31 11 60.5t31.5 53t47.5 39t57 15.5q43 0 68.5 -26.5t25.5 -73.5q0 -61 -34.5 -115.5t-89 -97.5t-119 -74t-123.5 -49z" />
<glyph unicode="&#x201c;" horiz-adv-x="815" d="M358 1196q0 35 11.5 67.5t32 58.5t49 41t63.5 15q45 0 67.5 -26.5t22.5 -69.5q0 -31 -10 -57.5t-26.5 -48t-34 -37t-31.5 -21.5q10 -35 50 -64.5t77 -43.5l-41 -66q-43 16 -84 41t-74 56.5t-52.5 70.5t-19.5 84zM764 1196q0 35 10 67.5t30.5 58.5t50.5 41t63 15 q45 0 67.5 -26.5t22.5 -69.5q0 -31 -10.5 -57.5t-27 -48t-33.5 -37t-32 -21.5q10 -35 50 -64.5t77 -43.5l-41 -66q-43 16 -84 41t-72.5 56.5t-51 70.5t-19.5 84z" />
<glyph unicode="&#x201d;" horiz-adv-x="815" d="M227 1012q41 10 96.5 41.5t79.5 68.5q-16 10 -31.5 32t-15.5 58q0 31 12.5 61t33 53.5t47 38.5t57.5 15q43 0 68.5 -26.5t25.5 -73.5q0 -61 -36 -115.5t-89 -97.5t-117.5 -73.5t-126.5 -49.5zM635 1012q41 10 95 41.5t81 68.5q-18 10 -32.5 32t-14.5 58q0 31 11 61 t31.5 53.5t47.5 38.5t57 15q43 0 69 -26.5t26 -73.5q0 -61 -35 -115.5t-89.5 -97.5t-119 -73.5t-123.5 -49.5z" />
<glyph unicode="&#x201e;" horiz-adv-x="815" d="M-12 -76q41 10 95 42t81 69q-18 10 -32.5 31.5t-14.5 58.5q0 31 11 60.5t31.5 53t47 39t57.5 15.5q43 0 68.5 -26.5t25.5 -73.5q0 -61 -34.5 -115.5t-89 -97.5t-119 -74t-123.5 -49zM389 -76q41 10 96.5 42t79.5 69q-16 10 -31.5 31.5t-15.5 58.5q0 31 12.5 60.5t33 53 t47 39t55.5 15.5q43 0 69.5 -26.5t26.5 -73.5q0 -61 -36 -115.5t-89 -97.5t-117.5 -74t-126.5 -49z" />
<glyph unicode="&#x2022;" horiz-adv-x="1046" d="M289 795q0 82 32.5 154.5t89 126.5t132 85t164.5 31q86 0 161.5 -32t133 -85t89 -125.5t31.5 -154.5q0 -84 -31.5 -156t-89 -126t-133 -85t-161.5 -31q-88 0 -163 31t-132 84t-90 126t-33 157z" />
<glyph unicode="&#x2026;" horiz-adv-x="1193" d="M96 72q0 8 1 14t3 14q12 51 54.5 87t91.5 36q41 0 63 -30q25 -31 25 -93q-12 -51 -53 -87t-93 -36q-43 0 -67.5 27t-24.5 68zM500 72q0 8 1 14t3 14q10 51 52 87t89 36q43 0 67.5 -26.5t24.5 -67.5q0 -8 -1 -14t-3 -15q-10 -51 -51 -87t-90 -36q-43 0 -67.5 27t-24.5 68z M897 72q0 8 1 14t3 14q10 51 53 87t90 36q41 0 66 -30q25 -31 25 -93q-10 -51 -53.5 -87t-92.5 -36q-43 0 -67.5 27t-24.5 68z" />
<glyph unicode="&#x202f;" horiz-adv-x="362" />
<glyph unicode="&#x2039;" horiz-adv-x="643" d="M147 522l494 410l96 -90l-379 -324l287 -328l-119 -79z" />
<glyph unicode="&#x203a;" horiz-adv-x="643" d="M98 201l379 321l-287 328l119 82l379 -414l-491 -407z" />
<glyph unicode="&#x2044;" horiz-adv-x="477" d="M-510 57l1665 1315l84 -98l-1675 -1311z" />
<glyph unicode="&#x205f;" horiz-adv-x="454" />
<glyph unicode="&#x2074;" horiz-adv-x="645" d="M248 868l20 95l434 399h109l-90 -406h84l-21 -88h-84l-41 -178h-133l41 178h-319zM397 956h191l53 226z" />
<glyph unicode="&#x20ac;" d="M182 440l33 140h154q4 35 11 74.5t23 107.5h-147l31 141h157q29 86 79 171t121 152.5t160 109.5t195 42q90 0 155 -20.5t110 -55t74.5 -79.5t47.5 -95l-151 -61q-33 78 -88 122t-152 44q-123 0 -215 -91t-149 -239h370l-28 -141h-387q-12 -45 -21.5 -90t-15.5 -92h383 l-33 -140h-362v-10q0 -63 14 -118.5t43 -97.5t76 -65.5t110 -23.5q96 0 165 49t132 135l133 -88q-39 -51 -83 -96t-96 -78t-116.5 -51.5t-142.5 -18.5q-111 0 -187.5 36t-127.5 97.5t-75 143.5t-24 174v12h-176z" />
<glyph unicode="&#x2122;" horiz-adv-x="1333" d="M268 1264v102h463v-102h-172v-486h-119v486h-172zM829 778v588h121l195 -410l180 410h119v-588h-121v365l-162 -369h-35l-176 371v-367h-121z" />
<glyph unicode="&#xe000;" horiz-adv-x="975" d="M0 975h975v-975h-975v975z" />
<glyph unicode="&#xfb01;" horiz-adv-x="1052" d="M190 0l189 848h-150l29 129h150l16 72q18 88 57 153.5t94.5 108.5t122 63.5t136.5 20.5q119 0 193.5 -33t115.5 -72l-105 -104q-31 29 -81 55.5t-126 26.5q-84 0 -150.5 -49.5t-90.5 -171.5l-17 -70h246l-28 -129h-242l-193 -848h-166zM737 0l217 977h168l-219 -977h-166 z" />
<glyph unicode="&#xfb02;" horiz-adv-x="1110" d="M190 0l189 848h-152l31 129h150l10 35q20 100 68.5 172.5t114 119t148 68t175.5 21.5q123 0 205.5 -26t130.5 -48l-295 -1319h-166l274 1231q-43 16 -88 21t-82 5q-49 0 -100 -11t-94 -38.5t-77 -77t-52 -124.5l-7 -29h246l-31 -129h-241l-189 -848h-168z" />
<glyph unicode="&#xfb03;" horiz-adv-x="1683" d="M190 0l191 848h-152l29 129h154l14 72q39 188 136 267t245 79q84 0 138 -17.5t93 -38.5l-57 -120q-35 16 -74 29.5t-94 13.5q-35 0 -69.5 -8.5t-64.5 -32t-53.5 -65.5t-35.5 -109l-17 -70h465l15 72q20 88 59 153.5t93.5 108.5t121 63.5t137.5 20.5q119 0 193 -33 t115 -72l-103 -104q-31 29 -81 55.5t-126 26.5q-84 0 -150.5 -49.5t-92.5 -171.5l-15 -70h246l-29 -129h-243l-191 -848h-166l187 848h-459l-191 -848h-168zM1368 0l217 977h168l-219 -977h-166z" />
<glyph unicode="&#xfb04;" horiz-adv-x="1757" d="M190 0l191 848h-152l31 129h152l14 72q39 188 136 267t245 79q84 0 138 -17.5t93 -38.5l-57 -120q-35 16 -74 29.5t-94 13.5q-35 0 -69.5 -8.5t-64.5 -32t-53.5 -65.5t-35.5 -109l-17 -70h478l10 35q20 100 68.5 172.5t114 119t148.5 68t175 21.5q123 0 205.5 -26 t130.5 -48l-295 -1319h-168l276 1231q-43 16 -88 21t-82 5q-49 0 -100 -11t-94 -38.5t-77 -77t-52 -124.5l-6 -29h245l-30 -129h-242l-189 -848h-167l188 848h-473l-191 -848h-168z" />
</font>
</defs>
</svg>
